<?xml version="1.0" encoding="utf-8"?>
<!-- Generator: Adobe Illustrator 23.0.5, SVG Export Plug-In . SVG Version: 6.00 Build 0)  -->
<svg version="1.1" id="Layer_1" xmlns="http://www.w3.org/2000/svg" xmlns:xlink="http://www.w3.org/1999/xlink" x="0px" y="0px"
	 viewBox="0 0 400 400" style="enable-background:new 0 0 400 400;" xml:space="preserve">
<style type="text/css">
	.st0{opacity:0.45;}
	.st1{fill:#9C5FD4;}
	.st2{fill:url(#SVGID_1_);}
	.st3{fill:url(#SVGID_2_);}
	.st4{fill:url(#SVGID_3_);}
	.st5{fill:url(#SVGID_4_);}
	.st6{fill:url(#SVGID_5_);}
	.st7{fill:url(#SVGID_6_);}
	.st8{fill:none;}
	.st9{fill:#FFFFFF;}
	.st10{font-family:'ArialMT';}
	.st11{font-size:72.6127px;}
</style>
<g>
	<g>
		<g class="st0">
			<path class="st1" d="M174.7,200.7c-2.6-2.8-3.3-5.8-2.2-9.4c-1.8,1.6-3.6,2.5-5.8,2.4c-2.1,0-4-0.8-5.5-2.4
				c-2.4-2.5-2.9-6.3-1.3-9.6c1.5-3,4.9-4.4,8.8-3.9c-0.5-1.3-1.3-2.6-1.5-4c-0.3-1.4-0.1-2.9-0.1-4.3c-1.5,1.3-3.3,2.1-5.5,2
				s-4-1-5.5-2.8c-2.3-2.8-2.4-6.8-0.3-9.7c2.1-2.9,5.8-3.9,9.2-2.5c3.5,1.4,5,4.9,4.3,9.8c2.3-2.1,4.8-2.8,8-2.1
				c-1.8-2.6-2.4-5.2-1.5-8.4c-1.9,1.5-3.7,2.3-5.9,2.1s-3.9-1.1-5.3-2.8c-2.3-2.8-2.4-6.7-0.3-9.7c2-2.8,5.7-4,9-2.6
				c3.5,1.4,5.2,4.8,4.6,9.7c2.5-2.1,5.2-2.8,8.3-1.9c-2.3-2.9-2.7-5.9-1.4-9.3c-3.4,3.4-7.5,3.7-10.6,1.2c-3-2.6-3.8-6.9-1.7-10.2
				c2.1-3.4,6.3-4.5,9.9-2.6c3.4,1.8,4.8,5.9,3.3,10.2c2.7-2.8,5.7-3.7,9.5-2.4c-1.7-1.9-2.5-3.7-2.5-5.9c0-2.3,0.8-4.2,2.4-5.7
				c2.6-2.5,6.7-2.8,9.6-0.6c2.9,2.2,3.9,6.1,2.5,9.6c-1.5,3.6-5.1,5.1-9.9,4.1c2.2,2.3,3,4.9,2.4,8.2c2.4-1.8,4.8-2.5,7.6-1.9
				c-2.2-5.1-1.8-8.6,1.3-11.2c2.7-2.3,6.4-2.5,9.3-0.6c3.1,2.1,4.2,5.8,2.9,10.2c3.5-3.3,7.3-3.9,11-1c2.9,2.3,3.6,5.6,2.5,9.2
				c5-2.9,8-3,11-0.2c2.3,2.2,3.1,6,1.8,9c-1.6,3.7-4.6,5.1-9.4,4.6c2.2,3.9,2.5,5.3,1.5,9.1c1.9-1.8,3.9-2.7,6.3-2.5
				c2.4,0.2,4.3,1.3,5.7,3.3c2.1,2.9,1.9,6.8-0.3,9.7c-2,2.6-5.9,3.6-8.9,2.2c-3.7-1.7-5.1-4.9-4.3-10.2c-2.2,2.1-4.7,3-7.8,2.5
				c1.7,2.5,2.2,5.1,1.5,8c3.8-2.4,7.6-2.4,10.1,0c3,2.8,3.7,6.6,1.9,10.1s-5.2,4.7-10.4,3.5c1.6,1.5,2.6,3.2,2.8,5.3
				c0.3,2.1-0.2,4-1.4,5.6c-2.2,3.2-5.7,4.1-10.1,2.6c1.9,1.9,3,3.9,2.9,6.4s-1.1,4.6-3,6.1c-2.7,2.1-6.6,2.1-9.2,0
				c-3-2.5-3.8-6.3-2.1-9.9c1.6-3.4,5.1-4.6,10.1-3.4c-2.5-2.4-3.4-5.2-2.6-8.8c-2.4,2-4.9,2.8-7.9,2.1c2.4,4.1,2.3,7.8-1,11.2
				c-2.3,2.3-5.9,2.7-8.7,1.3c-3.3-1.7-4.8-4.8-4.3-9.1c-1.3,0.5-2.6,1.2-3.9,1.5c-1.4,0.2-2.8,0-4.3,0c1.4,1.6,2.2,3.7,2.1,6
				c-0.2,2.4-1.2,4.3-3,5.7c-2.8,2.3-6.7,2.2-9.6-0.2c-2.6-2.2-3.5-6.3-2.1-9.4c1.7-3.6,5.1-5.1,9.8-4.1c-2.2-2.5-3-5.2-2.3-8.6
				c-2.7,2.1-5.4,2.5-8.5,1.5c1.7,2,2.5,4.3,2.2,6.9c-0.3,1.9-1.1,3.4-2.4,4.7c-2.7,2.5-6.8,2.7-9.8,0.5c-2.9-2.2-3.8-6.3-2.3-9.7
				C166.4,201,170,199.5,174.7,200.7z M229,190.9c-2.2,1.8-4.6,2.5-7.4,2.1c1.6,2.5,1.9,5,1.2,7.9c2.8-2.3,5.6-2.6,8.7-1.5
				C229.2,197,228.4,194.2,229,190.9z M232.9,154c-2.2,2.3-4.6,3-7.5,2.6c1.6,2.2,2.1,4.5,1.7,7.2c2.3-1.6,4.7-1.8,7.4-1.1
				C232.3,160.1,231.9,157.4,232.9,154z M220.6,153.6c-1.8-2.7-1.9-5.4-1.1-8.2c-2.2,2.2-4.7,3-7.8,2.5c1.6,2.2,2.2,4.4,1.8,7.1
				C215.8,153.5,218,153.1,220.6,153.6z M172.7,180.3c1.9,2.5,2.3,5.2,1.5,8.3c2-2,4.3-2.8,7.1-2.6c-1.4-2.2-1.8-4.4-1.4-6.9
				C177.1,180.5,176.4,180.6,172.7,180.3z M196.7,151.3c-2,1.6-4.5,2-7.3,1.2c1.8,2.1,2.4,4.3,2.3,6.8c1.1-0.4,2.1-0.9,3.1-1.2
				c1-0.2,2.1-0.2,2.8-0.3C197.3,155.7,197,153.5,196.7,151.3z M188.7,171.5c-0.3-1.8-0.7-3.8-1.1-5.8c-1.8,1.1-4,1.4-6.5,0.8
				c1.7,2.2,2.2,4.4,2,6.6C185.1,172.6,187,172.1,188.7,171.5z M201,198.9c0.3,2,0.5,4.1,0.8,6.1c1.8-1.4,4-1.9,6.2-1.5
				c-0.6-2-1.2-4-1.7-5.7C204.5,198.1,202.6,198.5,201,198.9z M188.1,196.1c2-0.6,4-1.3,5.7-1.8c-0.4-1.7-0.8-3.6-1.2-5.2
				c-1.7,0.3-3.6,0.7-5.5,1C188.2,192,188.5,194.1,188.1,196.1z M223.7,169.6c-1.7,0.5-3.5,1.1-4.5,1.4c0.4,1.7,0.7,3.5,1.1,5.2
				c1.1-0.1,3-0.4,4.8-0.6C223.9,173.8,223.4,171.7,223.7,169.6z M210.7,166.1c-0.3-1.7-0.5-3.6-0.8-5.1c-1.7,0.4-3.5,0.9-5.2,1.4
				c0.4,1.5,0.9,3.1,1.3,4.7C207.6,166.7,209.2,166.4,210.7,166.1z M210.8,190.2c1.8-0.3,3.6-0.6,5.2-0.9c-0.4-1.5-1-3.2-1.3-4.2
				c-1.5,0.2-3.2,0.4-4.7,0.6C210.3,187.1,210.6,188.7,210.8,190.2z M196.9,176.4c0.3,1.5,0.7,3.2,1,4.7c0.8-0.2,2.3-0.6,3.3-0.9
				c-0.3-1.5-0.6-3-0.9-4.5C199.2,176,197.7,176.3,196.9,176.4z"/>
			<path class="st1" d="M193.9,231.7c-3.4-2.4-4.4-7.3-2.1-10.7c2.3-3.5,7.1-4.5,10.4-2.2c3.5,2.4,4.5,7.3,2.1,10.8
				S197.3,234,193.9,231.7z"/>
			<path class="st1" d="M149.7,183.5c-3.5-2.3-4.5-6.9-2.2-10.5c2.2-3.6,6.8-4.6,10.3-2.3s4.4,7,2.2,10.5
				C157.7,184.8,153.1,185.8,149.7,183.5z"/>
			<path class="st1" d="M162.4,192.9c3.5,2.3,4.4,6.9,2.2,10.5c-2.3,3.6-6.8,4.6-10.3,2.2c-3.4-2.3-4.4-7-2.1-10.6
				C154.4,191.6,158.9,190.6,162.4,192.9z"/>
			<path class="st1" d="M229.1,130.9c2.2-3.6,6.7-4.7,10.2-2.4s4.5,6.9,2.4,10.5c-2.2,3.6-6.7,4.7-10.2,2.4
				C228,139.2,226.9,134.5,229.1,130.9z"/>
			<path class="st1" d="M249.3,172.3c-3.5-2.3-4.4-7-2.2-10.5c2.2-3.6,6.8-4.6,10.2-2.3c3.5,2.3,4.4,7,2.2,10.5
				C257.4,173.6,252.8,174.6,249.3,172.3z"/>
			<path class="st1" d="M215.8,122.3c2.2-3.6,6.8-4.7,10.2-2.4c3.4,2.2,4.5,6.9,2.3,10.4c-2.2,3.6-6.8,4.7-10.2,2.4
				C214.7,130.5,213.7,125.8,215.8,122.3z"/>
			<path class="st1" d="M245.9,208.1c-3.4-2.3-4.4-7-2.2-10.5s6.9-4.5,10.3-2.2c3.4,2.3,4.3,7,2.1,10.5
				C253.9,209.4,249.3,210.4,245.9,208.1z"/>
			<path class="st1" d="M235.3,211.3c2.2-3.5,6.8-4.5,10.2-2.2s4.4,7,2.1,10.5c-2.2,3.4-6.7,4.4-10.1,2.2
				C234.1,219.6,233.1,214.8,235.3,211.3z"/>
			<path class="st1" d="M242.3,139.5c2.1-3.5,6.7-4.6,10.1-2.4c3.4,2.2,4.5,7,2.3,10.4c-2.2,3.5-6.7,4.5-10.1,2.3
				C241.2,147.7,240.2,143,242.3,139.5z"/>
			<path class="st1" d="M183.2,129c-3.3-2.4-4.2-7.1-2-10.4c2.3-3.4,6.9-4.4,10.1-2.1c3.3,2.4,4.2,7.1,2,10.4
				C191,130.4,186.4,131.3,183.2,129z"/>
			<path class="st1" d="M262.4,181.8c3.4,2.3,4.2,7,2,10.4c-2.3,3.4-6.8,4.3-10.1,2c-3.3-2.3-4.2-6.9-2-10.3
				C254.6,180.5,259.1,179.5,262.4,181.8z"/>
			<path class="st1" d="M215.3,227.6c3.4,2.2,4.4,6.8,2.2,10.3s-6.7,4.5-10.1,2.2c-3.3-2.2-4.3-6.8-2.2-10.2
				C207.4,226.4,211.9,225.4,215.3,227.6z"/>
			<path class="st1" d="M202.7,113.6c2.2-3.5,6.5-4.5,9.9-2.3s4.4,6.8,2.2,10.3s-6.5,4.4-9.9,2.2
				C201.5,121.6,200.5,117.1,202.7,113.6z"/>
			<path class="st1" d="M170.5,226.4c2.1-3.5,6.5-4.5,9.9-2.3s4.4,6.7,2.2,10.2c-2.1,3.5-6.5,4.5-9.9,2.3S168.3,229.9,170.5,226.4z"
				/>
			<path class="st1" d="M167,215.4c3.4,2.2,4.4,6.7,2.2,10.2c-2.1,3.5-6.5,4.5-9.9,2.2c-3.3-2.2-4.3-6.7-2.2-10.1
				C159.3,214.3,163.6,213.2,167,215.4z"/>
			<path class="st1" d="M237,222.7c3.4,2.2,4.3,6.7,2.1,10.2c-2.2,3.4-6.6,4.4-9.9,2.1c-3.3-2.2-4.2-6.7-2.1-10.1
				C229.3,221.5,233.7,220.5,237,222.7z"/>
			<path class="st1" d="M161,135c3.4,2.2,4.3,6.7,2.1,10.2c-2.2,3.4-6.6,4.4-9.9,2.1c-3.3-2.2-4.2-6.7-2.1-10.1
				C153.2,133.8,157.6,132.8,161,135z"/>
			<path class="st1" d="M139.2,186.9c2.1-3.5,6.5-4.5,9.9-2.3c3.3,2.2,4.3,6.7,2.2,10.1c-2.1,3.5-6.5,4.5-9.9,2.3
				C138.1,194.8,137.1,190.3,139.2,186.9z"/>
			<path class="st1" d="M144.8,161.1c-3.3-2.2-4.3-6.8-2.1-10.2c2.1-3.4,6.5-4.3,9.8-2.2c3.3,2.2,4.3,6.8,2.1,10.2
				C152.5,162.3,148.1,163.3,144.8,161.1z"/>
			<path class="st1" d="M193.4,232.7c3.3,2.1,4.3,6.8,2.2,10.1c-2.1,3.4-6.6,4.4-9.9,2.2c-3.2-2.2-4.2-6.7-2.1-10
				C185.7,231.6,190.2,230.6,193.4,232.7z"/>
			<path class="st1" d="M159.6,123.6c2.1-3.4,6.6-4.4,9.8-2.2c3.3,2.2,4.2,6.8,2.1,10.1c-2.1,3.3-6.5,4.3-9.8,2.2
				C158.5,131.6,157.5,127,159.6,123.6z"/>
			<path class="st1" d="M255.8,148.3c2.1-3.4,6.6-4.4,9.9-2.2c3.2,2.2,4.2,6.7,2.1,10c-2.1,3.4-6.6,4.4-9.9,2.2
				C254.7,156.1,253.8,151.6,255.8,148.3z"/>
			<path class="st1" d="M260.7,170.7c2-3.4,6.5-4.4,9.7-2.3c3.3,2.1,4.3,6.6,2.2,10c-2,3.4-6.5,4.4-9.7,2.3
				C259.6,178.6,258.6,174.1,260.7,170.7z"/>
			<path class="st1" d="M144,209.1c2.1-3.4,6.5-4.4,9.7-2.2c3.3,2.2,4.2,6.7,2.1,10c-2.1,3.3-6.4,4.3-9.6,2.2
				C142.9,217,141.9,212.5,144,209.1z"/>
			<path class="st1" d="M134.5,164.5c2.1-3.4,6.4-4.4,9.7-2.2c3.2,2.2,4.2,6.5,2.1,9.9c-2.1,3.4-6.4,4.4-9.7,2.2
				S132.4,167.9,134.5,164.5z"/>
			<path class="st1" d="M237.9,117.7c2.1-3.4,6.3-4.3,9.6-2.2c3.3,2.1,4.2,6.5,2.1,9.9c-2.1,3.3-6.3,4.2-9.5,2.1
				C236.7,125.4,235.8,121,237.9,117.7z"/>
			<path class="st1" d="M189.8,105.3c2.1-3.4,6.3-4.3,9.6-2.2c3.3,2.1,4.2,6.5,2.1,9.8c-2.1,3.3-6.3,4.3-9.5,2.2
				C188.7,113,187.7,108.6,189.8,105.3z"/>
			<path class="st1" d="M224.6,109c2.1-3.4,6.3-4.3,9.6-2.2c3.2,2.1,4.1,6.5,2.1,9.8c-2.1,3.4-6.3,4.3-9.6,2.2
				C223.5,116.7,222.5,112.3,224.6,109z"/>
			<path class="st1" d="M230.5,246.4c-2,3.3-6.3,4.3-9.5,2.2s-4.2-6.5-2.1-9.9c2.1-3.3,6.3-4.2,9.5-2.1
				C231.6,238.7,232.6,243.1,230.5,246.4z"/>
			<path class="st1" d="M266.7,204.3c3.2,2.1,4.2,6.5,2.1,9.8c-2,3.3-6.3,4.3-9.5,2.2c-3.1-2.1-4.1-6.4-2.1-9.7
				C259.2,203.2,263.5,202.2,266.7,204.3z"/>
			<path class="st1" d="M170.2,120.1c-3.2-2.1-4.2-6.5-2.1-9.8c2-3.3,6.3-4.3,9.5-2.1c3.1,2.1,4.1,6.4,2.1,9.7
				C177.7,121.1,173.4,122.1,170.2,120.1z"/>
			<path class="st1" d="M206.7,241.7c3.2,2.1,4.1,6.6,2,9.8s-6.4,4.1-9.5,2c-3.2-2.1-4.1-6.6-2-9.8S203.6,239.6,206.7,241.7z"/>
			<path class="st1" d="M250.8,229.9c-3.2-2.1-4.1-6.6-2-9.8s6.4-4.1,9.5-2c3.2,2.1,4.1,6.6,2,9.8
				C258.2,231.1,253.9,232,250.8,229.9z"/>
			<path class="st1" d="M260.4,124.1c3.2,2,4.2,6.5,2.2,9.8c-2,3.2-6.3,4.2-9.4,2.2c-3.2-2-4.2-6.5-2.2-9.8
				C253,123.1,257.3,122,260.4,124.1z"/>
			<path class="st1" d="M275.1,190.7c3.2,2,4.1,6.4,2.1,9.6c-2,3.2-6.3,4.2-9.4,2.1c-3.1-2.1-4-6.3-2.1-9.6
				C267.7,189.6,271.9,188.6,275.1,190.7z"/>
			<path class="st1" d="M131.1,200.7c2-3.2,6.1-4.2,9.3-2.1c3.2,2.1,4.1,6.4,2,9.6c-2.1,3.2-6.2,4.1-9.3,2
				C130,208.1,129.1,203.9,131.1,200.7z"/>
			<path class="st1" d="M126.2,178.4c2-3.3,6.1-4.2,9.3-2.2c3.2,2.1,4.2,6.3,2.1,9.6c-2,3.2-6.1,4.2-9.3,2.1
				C125.1,185.8,124.2,181.6,126.2,178.4z"/>
			<path class="st1" d="M269.4,157.2c2-3.3,6.1-4.2,9.3-2.2c3.2,2.1,4.1,6.2,2.1,9.5s-6.1,4.2-9.3,2.2
				C268.4,164.7,267.4,160.5,269.4,157.2z"/>
			<path class="st1" d="M211.4,100.5c2-3.3,6.1-4.3,9.3-2.2c3.2,2,4.2,6.3,2.1,9.6c-2,3.2-6.1,4.2-9.3,2.1
				C210.3,108,209.4,103.7,211.4,100.5z"/>
			<path class="st1" d="M249.9,231.7c3.1,2.1,4,6.3,1.9,9.5c-2,3.2-6.1,4-9.2,2c-3.1-2.1-4-6.3-1.9-9.5
				C242.7,230.5,246.8,229.6,249.9,231.7z"/>
			<path class="st1" d="M171.8,238c3.1,2.1,4,6.3,2,9.5s-6.1,4.1-9.2,2c-3.1-2.1-4-6.3-2-9.5C164.6,236.9,168.7,236,171.8,238z"/>
			<path class="st1" d="M147.5,126.8c3.1,2,4,6.3,2,9.4c-2,3.2-6.1,4.1-9.3,2c-3.1-2.1-3.9-6.3-1.9-9.5
				C140.3,125.6,144.4,124.7,147.5,126.8z"/>
			<path class="st1" d="M158.5,229.3c3.1,2,4,6.2,2.1,9.4c-2,3.3-6.1,4.2-9.3,2.1c-3.1-2-4-6.2-2-9.4
				C151.3,228.3,155.3,227.3,158.5,229.3z"/>
			<path class="st1" d="M138.9,140.4c3.1,2,4,6.2,2.1,9.4c-2,3.2-6.1,4.2-9.2,2.1c-3.1-2-4-6.2-2.1-9.4
				C131.7,139.4,135.8,138.4,138.9,140.4z"/>
			<path class="st1" d="M264.5,135.1c2-3.2,6.1-4.1,9.2-2.1s4,6.2,2.1,9.4c-2,3.2-6.1,4.1-9.2,2.1S262.5,138.3,264.5,135.1z"/>
			<path class="st1" d="M274.2,179.5c1.9-3.1,6-4.1,9.1-2.2c3.1,2,4,6.3,2.1,9.4c-1.9,3.1-6.1,4-9.1,2.1
				C273.2,186.9,272.3,182.6,274.2,179.5z"/>
			<path class="st1" d="M175.7,248.7c1.9-3.1,6.1-4.1,9.1-2.1c3.1,2,4,6.3,2,9.5c-2,3.1-6.1,4-9.1,2
				C174.7,256.1,173.8,251.8,175.7,248.7z"/>
			<path class="st1" d="M146.7,115.2c1.9-3.1,6.1-4,9.1-2.1c3,2,3.9,6.3,2,9.4s-6.1,4-9.1,2.1C145.7,122.6,144.8,118.3,146.7,115.2z
				"/>
			<path class="st1" d="M178.9,106.1c-3-2-4-6.2-2-9.3c1.9-3.1,6.1-4.1,9.1-2.1s3.9,6.1,2,9.2C186,107.1,181.9,108.1,178.9,106.1z"
				/>
			<path class="st1" d="M145.1,220.8c3,2,3.9,6.3,2,9.3c-2,3.1-6.1,4-9.1,2s-3.9-6.2-2-9.3C138,219.7,142.1,218.8,145.1,220.8z"/>
			<path class="st1" d="M219.7,250.6c3.1,2,4,6.2,2,9.3c-1.9,3.1-5.9,4-9,2.1c-3.1-2-4-6.2-2-9.3
				C212.7,249.5,216.7,248.6,219.7,250.6z"/>
			<path class="st1" d="M130.6,154c3.1,2,3.9,6.2,2,9.3c-2,3.1-6,4-9,2c-3.1-2-3.9-6.2-2-9.3C123.6,152.9,127.6,152.1,130.6,154z"/>
			<path class="st1" d="M200.5,101.2c-3-2-3.9-6.1-1.9-9.2s5.9-4,9-2c3,2,3.9,6.1,1.9,9.2C207.5,102.3,203.5,103.2,200.5,101.2z"/>
			<path class="st1" d="M241.3,245.6c3,2,3.9,6.1,1.9,9.2c-1.9,3.1-5.8,3.9-8.9,1.9c-3-2-3.9-6.1-1.9-9.2
				C234.4,244.4,238.3,243.6,241.3,245.6z"/>
			<path class="st1" d="M126.9,190.2c3,2,3.8,6,1.9,9.1c-1.9,3.1-5.9,3.9-8.9,2c-3-2-3.8-6-1.9-9.1C120,189.1,124,188.2,126.9,190.2
				z"/>
			<path class="st1" d="M246.7,104.3c1.9-3.1,5.9-4,8.8-2c3,1.9,3.9,6,2,9.1s-5.8,4-8.8,2S244.8,107.4,246.7,104.3z"/>
			<path class="st1" d="M189.2,257.5c1.9-3,5.9-3.9,8.9-2c3,2,3.8,6.1,1.9,9.1c-1.9,3-5.8,3.9-8.8,2
				C188.2,264.7,187.3,260.6,189.2,257.5z"/>
			<path class="st1" d="M242.2,93.6c3,1.9,3.9,6,2,9.1s-5.9,4-8.9,2c-2.9-1.9-3.8-6-2-9C235.3,92.6,239.3,91.7,242.2,93.6z"/>
			<path class="st1" d="M155.2,101.8c1.9-3,5.9-3.9,8.9-2c3,2,3.8,6.1,1.9,9.1c-1.9,3-5.8,3.9-8.8,1.9
				C154.2,109,153.3,104.9,155.2,101.8z"/>
			<path class="st1" d="M270.6,120c-1.9,3-5.9,3.8-8.8,1.9c-2.9-2-3.7-6.1-1.8-9.1c1.9-3,5.9-3.8,8.8-1.9
				C271.6,112.9,272.5,117,270.6,120z"/>
			<path class="st1" d="M272.9,224.5c-2.9-1.9-3.8-6-2-9s5.8-3.9,8.8-2c2.9,1.9,3.8,6,2,9S275.9,226.4,272.9,224.5z"/>
			<path class="st1" d="M280,152.9c-2.9-1.9-3.8-6-2-9s5.8-3.9,8.8-2c2.9,1.9,3.8,6,2,9S283,154.8,280,152.9z"/>
			<path class="st1" d="M284.8,174.9c-2.9-1.9-3.8-6.1-1.9-9c1.9-3,5.9-3.8,8.8-1.9c2.9,2,3.7,6,1.9,8.9
				C291.7,175.9,287.7,176.8,284.8,174.9z"/>
			<path class="st1" d="M262.5,229.2c1.8-3,5.8-3.9,8.8-2c2.9,1.9,3.8,6,1.9,9s-5.8,3.9-8.7,2C261.6,236.3,260.7,232.2,262.5,229.2z
				"/>
			<path class="st1" d="M123.1,214.4c1.9-3,5.9-3.9,8.8-2s3.8,6.1,1.9,9c-1.9,3-5.8,3.8-8.7,2C122.2,221.5,121.3,217.4,123.1,214.4z
				"/>
			<path class="st1" d="M113.3,170c1.8-3,5.7-3.9,8.6-2.1c3,1.9,3.9,5.9,2,9c-1.9,3-5.7,3.9-8.7,2C112.3,177,111.4,173,113.3,170z"
				/>
			<path class="st1" d="M281.4,210.7c-2.9-1.9-3.8-5.8-2-8.9c1.9-3,5.7-3.9,8.6-2s3.8,5.8,2,8.9
				C288.2,211.7,284.4,212.6,281.4,210.7z"/>
			<path class="st1" d="M220.3,87c1.9-3,5.7-3.9,8.6-2c2.9,1.9,3.8,5.8,1.9,8.9c-1.9,3-5.7,3.9-8.6,2C219.2,94,218.4,90,220.3,87z"
				/>
			<path class="st1" d="M187.4,92.3c-2.9-1.9-3.8-5.8-1.9-8.8c1.8-3,5.6-3.8,8.5-1.9c2.8,1.9,3.7,5.7,1.9,8.7
				C194.1,93.2,190.3,94.2,187.4,92.3z"/>
			<path class="st1" d="M262.9,240.8c2.9,1.9,3.7,5.8,1.9,8.8c-1.8,3-5.7,3.8-8.5,1.9c-2.8-1.9-3.7-5.8-1.9-8.7
				C256.2,239.8,260,238.9,262.9,240.8z"/>
			<path class="st1" d="M275.3,130.4c-2.9-1.9-3.7-5.8-1.9-8.8c1.8-2.9,5.6-3.8,8.4-1.9c2.9,1.9,3.7,5.8,1.9,8.8
				C281.9,131.4,278.1,132.2,275.3,130.4z"/>
			<path class="st1" d="M154.6,254.1c1.8-3,5.7-3.8,8.5-1.9c2.8,1.9,3.7,5.8,1.9,8.7c-1.8,3-5.7,3.8-8.5,1.9
				C153.6,260.9,152.8,257,154.6,254.1z"/>
			<path class="st1" d="M149.8,243.5c2.9,1.9,3.7,5.9,1.8,8.8c-1.8,2.9-5.6,3.7-8.5,1.9c-2.9-1.9-3.7-5.9-1.8-8.8
				C143.1,242.5,146.9,241.6,149.8,243.5z"/>
			<path class="st1" d="M165.8,97c-2.8-1.8-3.7-5.7-2-8.7c1.8-3,5.7-3.9,8.5-2s3.7,5.8,1.9,8.7C172.4,98,168.6,98.9,165.8,97z"/>
			<path class="st1" d="M226.1,270.2c-2.8-1.8-3.7-5.7-2-8.7c1.8-3,5.7-3.9,8.5-2c2.8,1.8,3.7,5.8,1.9,8.7
				C232.8,271.1,229,272,226.1,270.2z"/>
			<path class="st1" d="M134.1,118.7c2.8,1.9,3.6,5.8,1.8,8.7c-1.9,2.9-5.8,3.7-8.6,1.8c-2.8-1.9-3.5-5.9-1.7-8.7
				C127.5,117.6,131.3,116.8,134.1,118.7z"/>
			<path class="st1" d="M202.8,266.3c1.8-2.9,5.7-3.7,8.4-1.9c2.8,1.9,3.6,5.8,1.8,8.7c-1.8,2.9-5.7,3.7-8.4,1.9
				C201.8,273.2,201,269.2,202.8,266.3z"/>
			<path class="st1" d="M287.9,188.5c1.8-2.9,5.6-3.8,8.4-2s3.7,5.8,1.9,8.7c-1.8,2.9-5.6,3.8-8.4,2
				C287,195.3,286.2,191.3,287.9,188.5z"/>
			<path class="st1" d="M117.1,134.3c1.8-2.9,5.6-3.7,8.4-1.9s3.6,5.8,1.9,8.7c-1.8,2.9-5.6,3.7-8.4,1.9
				C116.2,141.1,115.3,137.2,117.1,134.3z"/>
			<path class="st1" d="M169.5,271.2c-2.8-2-3.5-6-1.6-8.7c2-2.8,5.7-3.5,8.4-1.6c2.8,2,3.5,6,1.6,8.7
				C175.9,272.4,172.1,273.1,169.5,271.2z"/>
			<path class="st1" d="M134,107c1.7-2.9,5.4-3.8,8.3-2c2.9,1.8,3.7,5.7,1.9,8.6s-5.5,3.7-8.3,1.9C133.1,113.8,132.3,109.9,134,107z
				"/>
			<path class="st1" d="M128.2,236.7c1.9-2.9,5.6-3.6,8.3-1.6c2.8,1.9,3.5,5.7,1.6,8.6c-1.9,2.8-5.5,3.5-8.3,1.6
				C127,243.3,126.3,239.6,128.2,236.7z"/>
			<path class="st1" d="M215.6,76.7c2.8,1.8,3.7,5.6,1.9,8.5s-5.5,3.7-8.3,1.9c-2.8-1.8-3.6-5.6-1.8-8.4
				C209.1,75.7,212.8,74.9,215.6,76.7z"/>
			<path class="st1" d="M118.4,204c2.8,1.9,3.6,5.6,1.8,8.5c-1.8,2.9-5.4,3.7-8.2,1.8c-2.8-1.9-3.6-5.6-1.8-8.5
				C112,203,115.6,202.2,118.4,204z"/>
			<path class="st1" d="M108.9,147.9c1.8-2.9,5.4-3.7,8.3-1.9c2.8,1.8,3.6,5.5,1.8,8.4c-1.8,2.9-5.4,3.7-8.3,1.9
				C107.9,154.4,107.1,150.7,108.9,147.9z"/>
			<path class="st1" d="M291.5,152.7c1.8-2.9,5.4-3.8,8.2-2c2.9,1.8,3.7,5.6,1.9,8.5c-1.8,2.9-5.4,3.7-8.2,1.9
				C290.6,159.3,289.7,155.6,291.5,152.7z"/>
			<path class="st1" d="M107,192.2c-2.8-1.8-3.6-5.5-1.8-8.4c1.8-2.9,5.4-3.7,8.3-1.9c2.8,1.8,3.5,5.6,1.7,8.4
				C113.4,193.2,109.8,194,107,192.2z"/>
			<path class="st1" d="M246.1,256.5c1.8-2.9,5.4-3.7,8.2-1.9c2.8,1.8,3.6,5.5,1.8,8.4c-1.8,2.9-5.4,3.7-8.2,1.9
				C245.2,263.1,244.3,259.4,246.1,256.5z"/>
			<path class="st1" d="M288.7,138.8c-2.7-1.8-3.5-5.6-1.8-8.3c1.7-2.8,5.4-3.6,8.1-1.8c2.7,1.8,3.5,5.6,1.8,8.3
				C295.1,139.8,291.4,140.6,288.7,138.8z"/>
			<path class="st1" d="M183,279.8c-2.7-1.8-3.5-5.6-1.8-8.4s5.4-3.6,8.1-1.8c2.7,1.8,3.5,5.6,1.8,8.4
				C189.4,280.8,185.7,281.6,183,279.8z"/>
			<path class="st1" d="M142.5,93.6c1.7-2.8,5.4-3.7,8.1-1.9c2.7,1.7,3.6,5.5,1.9,8.3c-1.7,2.8-5.4,3.7-8.1,1.9
				C141.6,100.2,140.8,96.4,142.5,93.6z"/>
			<path class="st1" d="M255.7,90.9c1.7-2.8,5.5-3.6,8.1-1.8c2.7,1.8,3.4,5.5,1.7,8.3c-1.7,2.8-5.5,3.6-8.1,1.8
				C254.7,97.4,254,93.6,255.7,90.9z"/>
			<path class="st1" d="M298.4,183.2c-2.7-1.7-3.5-5.6-1.8-8.3s5.4-3.6,8-1.8c2.7,1.7,3.5,5.6,1.8,8.3
				C304.7,184.1,301.1,184.9,298.4,183.2z"/>
			<path class="st1" d="M242.4,82.3c1.7-2.8,5.3-3.6,8-1.9s3.6,5.6,1.8,8.3c-1.7,2.7-5.4,3.5-8,1.8C241.5,88.7,240.7,85,242.4,82.3z
				"/>
			<path class="st1" d="M123.1,226.5c2.7,1.7,3.5,5.4,1.8,8.2s-5.4,3.7-8.1,1.9s-3.5-5.5-1.8-8.2
				C116.8,225.6,120.4,224.8,123.1,226.5z"/>
			<path class="st1" d="M100.6,161.7c1.7-2.8,5.2-3.6,8-1.9c2.7,1.8,3.5,5.4,1.8,8.2s-5.2,3.6-7.9,1.9
				C99.7,168.2,98.9,164.5,100.6,161.7z"/>
			<path class="st1" d="M268.9,99.5c1.7-2.8,5.3-3.6,8-1.7c2.7,1.8,3.4,5.4,1.7,8.1c-1.7,2.8-5.3,3.6-8,1.7
				C267.9,105.8,267.2,102.3,268.9,99.5z"/>
			<path class="st1" d="M284.6,224.3c1.7-2.8,5.3-3.6,8-1.7c2.7,1.8,3.4,5.4,1.7,8.1c-1.7,2.8-5.3,3.6-8,1.7
				C283.6,230.6,282.9,227.1,284.6,224.3z"/>
			<path class="st1" d="M277.9,246.2c-2.7-1.7-3.5-5.3-1.8-8.1s5.2-3.6,7.9-1.8c2.7,1.8,3.4,5.3,1.7,8.1
				C284.1,247.1,280.6,247.9,277.9,246.2z"/>
			<path class="st1" d="M172.5,75.1c1.7-2.8,5.2-3.6,7.9-1.8c2.7,1.8,3.5,5.4,1.7,8.2c-1.7,2.7-5.2,3.5-7.9,1.7
				C171.6,81.4,170.8,77.8,172.5,75.1z"/>
			<path class="st1" d="M196,78.1c-2.7-1.8-3.4-5.3-1.7-8.1c1.7-2.7,5.2-3.5,7.9-1.7c2.6,1.7,3.3,5.3,1.7,8
				C202.2,79.1,198.7,79.9,196,78.1z"/>
			<path class="st1" d="M224.1,273.3c2.7,1.8,3.4,5.3,1.7,8.1c-1.7,2.7-5.2,3.5-7.9,1.7c-2.6-1.7-3.4-5.3-1.7-8
				C217.9,272.4,221.4,271.6,224.1,273.3z"/>
			<path class="st1" d="M237,71.8c2.7,1.7,3.5,5.3,1.8,8.1c-1.7,2.7-5.2,3.5-7.8,1.8c-2.7-1.7-3.5-5.3-1.8-8.1
				C230.9,70.9,234.4,70.1,237,71.8z"/>
			<path class="st1" d="M294.8,218.7c-2.7-1.8-3.4-5.4-1.7-8.1c1.7-2.7,5.2-3.4,7.8-1.7c2.7,1.8,3.4,5.4,1.7,8.1
				C300.9,219.7,297.4,220.5,294.8,218.7z"/>
			<path class="st1" d="M239.7,278.4c-2.6-1.7-3.4-5.3-1.8-8c1.6-2.7,5.2-3.6,7.9-1.8c2.6,1.7,3.4,5.3,1.7,8
				S242.3,280.1,239.7,278.4z"/>
			<path class="st1" d="M202.5,278.5c2.6,1.7,3.4,5.3,1.8,8c-1.6,2.6-5.1,3.4-7.7,1.8c-2.6-1.7-3.4-5.3-1.8-8
				C196.4,277.7,199.9,276.9,202.5,278.5z"/>
			<path class="st1" d="M268,251.4c1.8-2.6,5.4-3.3,7.8-1.5c2.5,1.9,3.1,5.5,1.4,8c-1.8,2.6-5.4,3.3-7.8,1.5
				C267,257.5,266.3,253.9,268,251.4z"/>
			<path class="st1" d="M97.1,197.5c1.6-2.7,5.2-3.5,7.8-1.8c2.5,1.7,3.3,5.3,1.7,7.9c-1.6,2.7-5.2,3.5-7.8,1.8
				C96.3,203.7,95.5,200.1,97.1,197.5z"/>
			<path class="st1" d="M151.2,80.1c1.6-2.7,5.2-3.5,7.8-1.8s3.3,5.3,1.7,7.9c-1.6,2.7-5.2,3.5-7.8,1.8
				C150.4,86.3,149.6,82.8,151.2,80.1z"/>
			<path class="st1" d="M282.3,108.3c1.6-2.7,5.2-3.5,7.8-1.8c2.5,1.7,3.3,5.3,1.7,7.9c-1.6,2.7-5.2,3.5-7.8,1.8
				C281.4,114.5,280.7,110.9,282.3,108.3z"/>
			<path class="st1" d="M141.1,257.8c2.6,1.8,3.2,5.3,1.5,7.9s-5.2,3.3-7.7,1.5s-3.2-5.2-1.5-7.8C135.1,256.7,138.5,256,141.1,257.8
				z"/>
			<path class="st1" d="M146.6,268.1c1.7-2.7,5.1-3.4,7.7-1.7c2.6,1.7,3.3,5.2,1.6,7.9c-1.7,2.6-5,3.4-7.6,1.7
				C145.8,274.3,145,270.8,146.6,268.1z"/>
			<path class="st1" d="M300.3,139.3c1.6-2.7,5-3.5,7.6-1.8s3.3,5.1,1.7,7.7c-1.6,2.7-5,3.5-7.6,1.8
				C299.5,145.4,298.7,142,300.3,139.3z"/>
			<path class="st1" d="M112.8,112.3c1.7-2.7,5-3.4,7.6-1.7c2.5,1.7,3.2,5.1,1.6,7.8c-1.7,2.7-5,3.4-7.6,1.7
				C111.8,118.3,111.1,114.9,112.8,112.3z"/>
			<path class="st1" d="M301.6,197.3c1.7-2.7,5-3.4,7.6-1.7c2.5,1.7,3.2,5.1,1.6,7.8c-1.7,2.7-5,3.4-7.6,1.7
				C300.6,203.3,299.9,199.9,301.6,197.3z"/>
			<path class="st1" d="M102,219.9c1.6-2.7,5-3.5,7.6-1.8s3.3,5.1,1.7,7.7c-1.6,2.7-5,3.5-7.6,1.8C101.2,226,100.4,222.6,102,219.9z
				"/>
			<path class="st1" d="M92.5,175.5c1.7-2.6,5-3.4,7.5-1.7c2.6,1.7,3.3,5.1,1.6,7.8c-1.7,2.6-5,3.4-7.5,1.7
				C91.5,181.5,90.8,178.1,92.5,175.5z"/>
			<path class="st1" d="M306.9,169.4c-2.6-1.7-3.3-5.1-1.7-7.7c1.6-2.7,4.9-3.4,7.5-1.7s3.3,5.1,1.7,7.7
				C312.8,170.3,309.5,171.1,306.9,169.4z"/>
			<path class="st1" d="M106,133.7c-2.6-1.7-3.2-5.1-1.6-7.8c1.7-2.6,5-3.3,7.6-1.6c2.6,1.7,3.2,5.1,1.6,7.8
				C111.9,134.7,108.5,135.4,106,133.7z"/>
			<path class="st1" d="M217.9,72.9c-2.6-1.7-3.3-5.1-1.6-7.8c1.7-2.6,5-3.4,7.6-1.6c2.6,1.7,3.3,5.1,1.6,7.8
				C223.8,73.9,220.5,74.6,217.9,72.9z"/>
			<path class="st1" d="M159.9,276.7c1.6-2.6,5-3.3,7.5-1.6c2.5,1.7,3.2,5.1,1.5,7.8c-1.6,2.6-4.9,3.3-7.5,1.6
				C158.9,282.7,158.2,279.3,159.9,276.7z"/>
			<path class="st1" d="M120.1,250.8c1.6-2.6,5-3.4,7.5-1.7c2.5,1.7,3.2,5.1,1.6,7.7c-1.6,2.6-5,3.4-7.5,1.7
				C119.2,256.8,118.5,253.4,120.1,250.8z"/>
			<path class="st1" d="M128.8,97c2.5,1.7,3.2,5.2,1.6,7.8c-1.6,2.5-5,3.3-7.5,1.6c-2.5-1.7-3.2-5.2-1.6-7.8
				C123,96,126.3,95.3,128.8,97z"/>
			<path class="st1" d="M96.1,139.4c1.6-2.5,5-3.3,7.5-1.6s3.2,5.2,1.5,7.7c-1.6,2.5-5,3.2-7.4,1.6C95.3,145.5,94.5,142,96.1,139.4z
				"/>
			<path class="st1" d="M259.6,265.4c1.5-2.6,4.9-3.4,7.4-1.8s3.3,5.1,1.7,7.7c-1.6,2.5-4.9,3.3-7.4,1.7
				C258.9,271.5,258.1,268,259.6,265.4z"/>
			<path class="st1" d="M297.4,124.6c-2.4-1.7-3.1-5.1-1.4-7.6s5-3.2,7.4-1.5s3.1,5.1,1.4,7.6C303.1,125.6,299.8,126.3,297.4,124.6z
				"/>
			<path class="st1" d="M138.5,91.1c-1.6,2.5-4.8,3.2-7.3,1.5c-2.4-1.6-3.1-4.9-1.5-7.5c1.6-2.5,4.8-3.2,7.3-1.5
				C139.5,85.3,140.1,88.6,138.5,91.1z"/>
			<path class="st1" d="M317.4,182.1c2.5,1.6,3.2,4.8,1.7,7.4c-1.5,2.6-4.8,3.4-7.3,1.8c-2.5-1.6-3.2-4.9-1.6-7.5
				C311.8,181.2,315,180.5,317.4,182.1z"/>
			<path class="st1" d="M188.6,60c2.5,1.6,3.2,5,1.6,7.5c-1.6,2.5-4.8,3.2-7.2,1.6c-2.5-1.6-3.2-5-1.6-7.5S186.2,58.4,188.6,60z"/>
			<path class="st1" d="M173.3,285.5c1.6-2.6,4.8-3.3,7.3-1.6c2.4,1.6,3.1,4.9,1.6,7.4c-1.6,2.6-4.8,3.3-7.3,1.6
				C172.4,291.3,171.7,288,173.3,285.5z"/>
			<path class="st1" d="M208.2,289.1c1.6-2.5,4.7-3.3,7.2-1.7c2.5,1.6,3.2,4.9,1.6,7.4c-1.5,2.5-4.7,3.2-7.1,1.6
				C207.4,294.9,206.6,291.6,208.2,289.1z"/>
			<path class="st1" d="M230,284.1c1.6-2.5,4.7-3.3,7.2-1.6c2.5,1.6,3.1,4.9,1.5,7.4s-4.7,3.2-7.1,1.6
				C229.1,289.9,228.4,286.6,230,284.1z"/>
			<path class="st1" d="M264.5,77.8c1.5-2.5,4.8-3.3,7.2-1.6c2.4,1.6,3.1,4.8,1.6,7.3s-4.8,3.3-7.2,1.6
				C263.7,83.6,263,80.3,264.5,77.8z"/>
			<path class="st1" d="M251.2,69.1c1.6-2.5,4.8-3.2,7.2-1.6s3.1,4.8,1.5,7.3s-4.8,3.2-7.2,1.6C250.4,74.9,249.7,71.6,251.2,69.1z"
				/>
			<path class="st1" d="M114.3,240.7c2.5,1.6,3.2,4.9,1.6,7.4s-4.7,3.2-7.2,1.6c-2.4-1.6-3.1-4.8-1.6-7.3
				C108.7,239.9,111.9,239.1,114.3,240.7z"/>
			<path class="st1" d="M159.8,66.8c1.6-2.5,4.7-3.3,7.2-1.7c2.5,1.6,3.2,4.9,1.6,7.4c-1.5,2.5-4.7,3.2-7.1,1.7
				C159,72.6,158.3,69.4,159.8,66.8z"/>
			<path class="st1" d="M87.8,153.3c1.5-2.5,4.7-3.2,7.1-1.6c2.4,1.6,3.1,4.9,1.6,7.3c-1.5,2.5-4.7,3.2-7.1,1.6
				C87,159.1,86.3,155.8,87.8,153.3z"/>
			<path class="st1" d="M203.2,56.7c1.5-2.5,4.7-3.2,7.1-1.6c2.4,1.6,3.1,4.9,1.6,7.3c-1.5,2.5-4.7,3.2-7.1,1.6
				S201.7,59.1,203.2,56.7z"/>
			<path class="st1" d="M277.7,86.4c1.5-2.5,4.7-3.2,7.1-1.7s3.1,4.9,1.6,7.3s-4.7,3.1-7,1.6C276.9,92.2,276.2,88.9,277.7,86.4z"/>
			<path class="st1" d="M258.5,277.6c2.3,1.5,3,4.8,1.6,7.2c-1.5,2.4-4.8,3.2-7.1,1.6s-3-4.9-1.5-7.3
				C253,276.8,256.2,276.1,258.5,277.6z"/>
			<path class="st1" d="M96.2,209.8c2.3,1.6,3,4.9,1.5,7.3c-1.6,2.4-4.9,3.1-7.2,1.5c-2.3-1.6-2.9-5-1.4-7.3
				C90.7,208.9,93.9,208.2,96.2,209.8z"/>
			<path class="st1" d="M91.5,187.6c2.3,1.5,3,4.8,1.6,7.2c-1.5,2.4-4.7,3.1-7,1.6s-3-4.8-1.6-7.2C85.9,186.8,89.1,186,91.5,187.6z"
				/>
			<path class="st1" d="M298.5,233.4c1.5-2.4,4.7-3.1,7-1.6c2.3,1.6,3,4.8,1.5,7.2s-4.7,3.1-7,1.6C297.7,239,297,235.7,298.5,233.4z
				"/>
			<path class="st1" d="M297,245.5c2.4,1.5,3.1,4.7,1.6,7.2c-1.5,2.4-4.5,3.1-6.9,1.6s-3.1-4.7-1.6-7.2
				C291.5,244.7,294.6,244,297,245.5z"/>
			<path class="st1" d="M245,59c2.4,1.6,3,4.8,1.5,7.2c-1.5,2.4-4.6,3-6.9,1.5c-2.4-1.6-3-4.8-1.5-7.2C239.6,58.1,242.7,57.4,245,59
				z"/>
			<path class="st1" d="M321,146.6c2.4,1.5,3.1,4.6,1.6,7.1s-4.6,3.2-7,1.7s-3.1-4.7-1.6-7.2C315.6,145.8,318.6,145.1,321,146.6z"/>
			<path class="st1" d="M307,219.7c1.5-2.4,4.5-3.1,6.9-1.5s3,4.7,1.5,7.1c-1.5,2.4-4.5,3.1-6.9,1.5
				C306.1,225.3,305.5,222.2,307,219.7z"/>
			<path class="st1" d="M291.1,95.2c1.5-2.4,4.5-3.1,6.9-1.6s3,4.6,1.5,7.1c-1.5,2.4-4.5,3-6.8,1.5
				C290.3,100.7,289.6,97.6,291.1,95.2z"/>
			<path class="st1" d="M138.4,71.7c1.5-2.4,4.5-3.1,6.9-1.6s3,4.6,1.5,7.1c-1.5,2.4-4.5,3-6.8,1.5
				C137.6,77.3,136.9,74.2,138.4,71.7z"/>
			<path class="st1" d="M193.7,292.8c2.4,1.5,3.1,4.6,1.6,7.1c-1.5,2.4-4.5,3.1-6.9,1.6c-2.3-1.5-3-4.6-1.6-7
				C188.3,292,191.3,291.2,193.7,292.8z"/>
			<path class="st1" d="M310.8,132.9c-2.3-1.5-3-4.6-1.6-7c1.5-2.4,4.5-3.2,6.9-1.6c2.3,1.5,3,4.6,1.5,7
				C316.1,133.7,313.1,134.4,310.8,132.9z"/>
			<path class="st1" d="M95.7,240.9c-2.3-1.5-3-4.6-1.6-7s4.5-3.1,6.8-1.6s3,4.6,1.6,7C101,241.6,98,242.4,95.7,240.9z"/>
			<path class="st1" d="M283.4,267.6c-2.3-1.5-3-4.6-1.5-7c1.4-2.4,4.5-3.1,6.8-1.6s3,4.6,1.5,7
				C288.7,268.4,285.6,269.1,283.4,267.6z"/>
			<path class="st1" d="M318.8,170.5c1.4-2.4,4.5-3.1,6.8-1.6s3,4.6,1.5,7c-1.4,2.4-4.5,3.1-6.8,1.6S317.4,172.8,318.8,170.5z"/>
			<path class="st1" d="M138.9,281.9c1.5-2.3,4.6-3,6.8-1.5s2.9,4.6,1.4,6.9s-4.6,3-6.8,1.5C138.1,287.4,137.4,284.2,138.9,281.9z"
				/>
			<path class="st1" d="M79.6,167.1c1.5-2.3,4.6-3,6.8-1.5c2.2,1.5,2.9,4.6,1.4,6.9c-1.5,2.3-4.6,3-6.8,1.5
				C78.8,172.5,78.2,169.4,79.6,167.1z"/>
			<path class="st1" d="M132.3,271.7c2.2,1.4,2.9,4.6,1.6,6.9c-1.4,2.3-4.5,3.1-6.8,1.6c-2.2-1.5-2.9-4.6-1.5-6.9
				C127,271,130,270.3,132.3,271.7z"/>
			<path class="st1" d="M225.1,52.1c1.4-2.3,4.5-3,6.7-1.6c2.3,1.5,3,4.7,1.5,7s-4.5,2.9-6.7,1.5C224.3,57.5,223.7,54.4,225.1,52.1z
				"/>
			<path class="st1" d="M315.4,206.4c1.4-2.3,4.5-3,6.7-1.6c2.3,1.5,3,4.7,1.5,7s-4.5,2.9-6.7,1.5
				C314.7,211.8,314,208.6,315.4,206.4z"/>
			<path class="st1" d="M101.5,110.8c-2.2-1.5-2.9-4.5-1.5-6.8s4.4-3,6.7-1.5c2.2,1.5,2.8,4.5,1.4,6.8
				C106.7,111.6,103.7,112.2,101.5,110.8z"/>
			<path class="st1" d="M91.6,117.7c1.4-2.3,4.3-3,6.6-1.5c2.3,1.5,2.9,4.5,1.4,6.9c-1.5,2.3-4.4,2.9-6.6,1.4
				C90.8,122.9,90.2,119.9,91.6,117.7z"/>
			<path class="st1" d="M152.1,290.5c1.4-2.3,4.3-2.9,6.6-1.5c2.3,1.5,2.9,4.6,1.4,6.9s-4.4,2.9-6.6,1.4
				C151.3,295.8,150.6,292.8,152.1,290.5z"/>
			<path class="st1" d="M168.7,53.3c1.4-2.3,4.3-2.9,6.6-1.5c2.3,1.5,2.9,4.6,1.4,6.9c-1.5,2.3-4.4,2.9-6.6,1.4
				C167.9,58.6,167.2,55.6,168.7,53.3z"/>
			<path class="st1" d="M112.4,264.6c1.5-2.3,4.3-2.9,6.6-1.4c2.2,1.5,2.8,4.5,1.3,6.8c-1.4,2.2-4.3,2.8-6.5,1.4
				C111.6,269.9,110.9,266.9,112.4,264.6z"/>
			<path class="st1" d="M221.9,298.1c1.4-2.3,4.3-3,6.5-1.6s3,4.5,1.5,6.6s-4,3.3-6.5,1.7C221.2,303.3,220.5,300.4,221.9,298.1z"/>
			<path class="st1" d="M191.7,54.9c-2.2-1.5-2.9-4.4-1.4-6.7c1.4-2.2,4.3-2.9,6.5-1.4s2.9,4.4,1.4,6.7
				C196.8,55.8,193.9,56.4,191.7,54.9z"/>
			<path class="st1" d="M108.5,90.4c1.4-2.3,4.3-3,6.5-1.5c2.2,1.4,2.9,4.4,1.5,6.6c-1.4,2.3-4.3,3-6.5,1.5
				C107.8,95.6,107.2,92.7,108.5,90.4z"/>
			<path class="st1" d="M306.1,110.6c-2.2-1.5-2.8-4.4-1.3-6.7c1.4-2.2,4.3-2.8,6.5-1.4c2.2,1.5,2.8,4.4,1.3,6.7
				C311.2,111.5,308.3,112.1,306.1,110.6z"/>
			<path class="st1" d="M84.8,137.8c-2.2-1.4-2.8-4.4-1.4-6.7c1.4-2.2,4.3-2.9,6.5-1.4c2.1,1.4,2.7,4.4,1.4,6.6
				C89.9,138.6,87,139.3,84.8,137.8z"/>
			<path class="st1" d="M201.6,309.6c-2.1-1.4-2.7-4.4-1.4-6.6c1.4-2.2,4.4-2.9,6.5-1.4s2.7,4.5,1.3,6.6
				C206.6,310.4,203.7,311.1,201.6,309.6z"/>
			<path class="st1" d="M147.1,58.3c1.5-2.1,4.4-2.7,6.4-1.2c2.1,1.5,2.7,4.6,1.2,6.7s-4.4,2.6-6.5,1.1
				C146.2,63.4,145.7,60.4,147.1,58.3z"/>
			<path class="st1" d="M166.9,305.9c-2.1-1.4-2.8-4.4-1.4-6.6c1.4-2.2,4.3-2.8,6.4-1.4c2.1,1.4,2.7,4.3,1.4,6.5
				C172,306.6,169.1,307.3,166.9,305.9z"/>
			<path class="st1" d="M324.1,192.8c1.4-2.2,4.3-2.8,6.4-1.4c2.1,1.4,2.7,4.5,1.3,6.6c-1.4,2.1-4.2,2.7-6.3,1.4
				C323.4,198,322.7,194.9,324.1,192.8z"/>
			<path class="st1" d="M76.4,203.1c1.4-2.2,4.3-2.8,6.4-1.4c2.1,1.4,2.7,4.5,1.3,6.6c-1.4,2.1-4.2,2.7-6.3,1.4
				C75.7,208.3,75.1,205.3,76.4,203.1z"/>
			<path class="st1" d="M99.4,256.2c1.4-2.2,4.2-2.8,6.3-1.4c2.2,1.4,2.8,4.4,1.4,6.6c-1.4,2.1-4.2,2.8-6.3,1.3
				C98.7,261.3,98.1,258.4,99.4,256.2z"/>
			<path class="st1" d="M213.5,50c-2.1-1.4-2.8-4.2-1.5-6.4s4.1-2.9,6.2-1.5c2.1,1.4,2.8,4.2,1.5,6.4S215.6,51.4,213.5,50z"/>
			<path class="st1" d="M118.5,83.4c-2.1-1.4-2.8-4.2-1.4-6.4c1.3-2.2,4.1-2.9,6.2-1.5s2.8,4.2,1.4,6.4
				C123.3,84.1,120.6,84.8,118.5,83.4z"/>
			<path class="st1" d="M71.7,180.8c1.4-2.2,4.1-2.8,6.2-1.4c2.1,1.4,2.7,4.2,1.3,6.3c-1.4,2.2-4.1,2.8-6.2,1.4
				C70.9,185.8,70.3,183,71.7,180.8z"/>
			<path class="st1" d="M323,134.8c1.4-2.2,4.1-2.8,6.2-1.4c2.1,1.4,2.7,4.1,1.3,6.3c-1.4,2.2-4.1,2.8-6.2,1.4
				C322.2,139.8,321.6,137,323,134.8z"/>
			<path class="st1" d="M329,163.4c-2.1-1.4-2.7-4.2-1.3-6.4c1.4-2.1,4-2.7,6.1-1.4c2.1,1.4,2.7,4.2,1.3,6.4
				C333.8,164.2,331.1,164.8,329,163.4z"/>
			<path class="st1" d="M87.3,224c2.1,1.4,2.7,4.2,1.4,6.4c-1.3,2.1-4,2.7-6.1,1.4c-2.1-1.4-2.7-4.2-1.4-6.4
				C82.6,223.2,85.2,222.6,87.3,224z"/>
			<path class="st1" d="M261.7,62.2c-2.1-1.4-2.7-4.2-1.3-6.3c1.3-2.1,4.1-2.8,6.1-1.4c2.1,1.4,2.7,4.2,1.3,6.3
				C266.5,62.9,263.7,63.5,261.7,62.2z"/>
			<path class="st1" d="M75.1,145.1c1.3-2.2,4-2.8,6.1-1.5c2.1,1.4,2.7,4.1,1.4,6.3c-1.3,2.2-4,2.8-6.1,1.5
				C74.4,150,73.8,147.2,75.1,145.1z"/>
			<path class="st1" d="M275,70.9c-2.1-1.4-2.7-4.1-1.4-6.3c1.3-2.2,4-2.8,6.1-1.5c2.1,1.4,2.7,4.1,1.4,6.3
				C279.8,71.6,277.1,72.2,275,70.9z"/>
			<path class="st1" d="M288.1,79.4c-2-1.3-2.6-4.1-1.4-6.2c1.3-2.1,4.1-2.8,6.2-1.4c2,1.3,2.6,4.2,1.3,6.2S290.1,80.7,288.1,79.4z"
				/>
			<path class="st1" d="M248.4,53.4c-2-1.3-2.6-4.1-1.3-6.1c1.3-2.1,4.1-2.7,6-1.3c2,1.4,2.5,4.1,1.2,6.1
				C253.1,54.1,250.4,54.7,248.4,53.4z"/>
			<path class="st1" d="M179.1,308.2c1.3-2,3.9-2.7,5.9-1.4c2,1.3,2.7,4.1,1.3,6.2c-1.3,2-4,2.6-6,1.3
				C178.4,313,177.8,310.2,179.1,308.2z"/>
			<path class="st1" d="M319.4,118.9c-2-1.3-2.6-4.1-1.3-6.1c1.3-2.1,4.1-2.7,6.1-1.3c2,1.4,2.5,4.1,1.2,6.1
				C324,119.6,321.4,120.2,319.4,118.9z"/>
			<path class="st1" d="M318.3,241.1c2,1.3,2.6,4,1.4,6.1s-4,2.8-6,1.4c-2-1.3-2.6-4.1-1.3-6.1C313.6,240.5,316.3,239.8,318.3,241.1
				z"/>
			<path class="st1" d="M127,69.5c-2-1.3-2.6-4-1.4-6.1c1.3-2.1,3.9-2.7,5.9-1.3c2,1.3,2.6,3.9,1.3,6
				C131.7,70.2,129.1,70.8,127,69.5z"/>
			<path class="st1" d="M305.4,262.3c-2-1.3-2.6-4-1.4-6.1c1.3-2.1,3.9-2.7,5.9-1.3c2,1.3,2.6,3.9,1.3,6
				C310,263,307.4,263.6,305.4,262.3z"/>
			<path class="st1" d="M334,185.6c-2-1.3-2.6-3.9-1.3-6c1.3-2.1,3.9-2.7,5.9-1.3c2,1.3,2.5,3.9,1.2,6
				C338.6,186.3,336,186.9,334,185.6z"/>
			<path class="st1" d="M321,228.8c1.3-2,3.8-2.6,5.8-1.3s2.6,4,1.2,6.1c-1.3,2-3.9,2.5-5.8,1.2C320.2,233.5,319.7,230.9,321,228.8z
				"/>
			<path class="st1" d="M92.2,246.4c2,1.3,2.6,3.9,1.4,6c-1.3,2.1-3.9,2.7-5.9,1.4s-2.6-3.9-1.3-6C87.6,245.7,90.2,245.1,92.2,246.4
				z"/>
			<path class="st1" d="M177.6,40c1.3-2,3.8-2.6,5.8-1.3s2.5,3.9,1.3,6c-1.3,2-3.8,2.6-5.8,1.3C176.9,44.7,176.3,42,177.6,40z"/>
			<path class="st1" d="M300.2,81.9c1.3-2,3.8-2.6,5.8-1.3c2,1.3,2.5,3.9,1.3,6c-1.3,2-3.8,2.6-5.8,1.3
				C299.5,86.6,299,83.9,300.2,81.9z"/>
			<path class="st1" d="M157.1,50.9c-1.9-1.3-2.5-4-1.2-6c1.3-1.9,3.9-2.5,5.8-1.2c1.9,1.3,2.5,4,1.2,6S159,52.2,157.1,50.9z"/>
			<path class="st1" d="M66.9,158.8c1.3-2,3.9-2.5,5.8-1.2s2.4,4,1.2,5.9c-1.3,2-3.9,2.5-5.8,1.2S65.7,160.8,66.9,158.8z"/>
			<path class="st1" d="M329.4,215.4c1.2-1.9,3.9-2.5,5.8-1.2c1.8,1.3,2.4,3.9,1.1,5.8c-1.2,1.9-3.9,2.5-5.8,1.2
				C328.7,219.9,328.2,217.3,329.4,215.4z"/>
			<path class="st1" d="M132.4,301.9c-1.9-1.2-2.5-3.9-1.3-5.9c1.2-1.9,3.7-2.5,5.6-1.3c1.9,1.2,2.5,3.9,1.3,5.9
				C136.8,302.5,134.3,303.1,132.4,301.9z"/>
			<path class="st1" d="M200.3,41c-1.9-1.3-2.5-4-1.2-5.9c1.2-1.9,3.8-2.4,5.7-1.2c1.9,1.3,2.5,4,1.2,5.9
				C204.8,41.6,202.2,42.2,200.3,41z"/>
			<path class="st1" d="M239.9,37.5c1.9,1.3,2.4,4,1.2,5.9c-1.3,1.9-3.8,2.4-5.7,1.2c-1.9-1.3-2.4-4-1.2-5.9
				C235.5,36.8,238.1,36.3,239.9,37.5z"/>
			<path class="st1" d="M273.8,280c-1.3-1.7-1.4-3.9-0.3-5.7c1.1-1.7,3.2-2.6,5.1-2.1c2,0.5,3.5,2.2,3.7,4.2c0,0.4-0.2,1-0.5,1.1
				C279.1,278.4,276.4,279.2,273.8,280z"/>
			<path class="st1" d="M117.8,287.4c1.2-1.9,3.7-2.5,5.6-1.2s2.4,3.8,1.2,5.8c-1.2,1.9-3.7,2.5-5.6,1.2S116.6,289.3,117.8,287.4z"
				/>
			<path class="st1" d="M79.2,109.6c1.2-1.9,3.6-2.5,5.5-1.2c1.9,1.2,2.4,3.7,1.2,5.6c-1.2,1.9-3.6,2.5-5.5,1.2
				C78.5,114,78,111.5,79.2,109.6z"/>
			<path class="st1" d="M87.6,95.9c1.2-1.9,3.6-2.5,5.5-1.3s2.4,3.7,1.3,5.6c-1.2,1.9-3.6,2.5-5.5,1.3S86.4,97.9,87.6,95.9z"/>
			<path class="st1" d="M145.6,310.3c-1.9-1.2-2.5-3.7-1.3-5.6s3.6-2.5,5.5-1.3s2.5,3.7,1.3,5.6C149.8,311,147.4,311.6,145.6,310.3z
				"/>
			<path class="st1" d="M74,215.9c1.9,1.2,2.4,3.7,1.2,5.6c-1.2,1.9-3.6,2.5-5.5,1.2c-1.9-1.2-2.4-3.7-1.2-5.6
				C69.7,215.2,72.1,214.7,74,215.9z"/>
			<path class="st1" d="M63.6,194.8c1.2-1.9,3.6-2.5,5.5-1.2c1.9,1.2,2.4,3.7,1.2,5.6c-1.2,1.9-3.6,2.5-5.5,1.2
				C63,199.2,62.4,196.7,63.6,194.8z"/>
			<path class="st1" d="M313.8,90.7c1.2-1.9,3.6-2.5,5.5-1.2c1.8,1.2,2.3,3.7,1.2,5.6c-1.2,1.9-3.6,2.5-5.5,1.2
				C313.1,95.1,312.6,92.6,313.8,90.7z"/>
			<path class="st1" d="M104.6,278.8c1.2-1.9,3.7-2.4,5.5-1.2c1.8,1.2,2.3,3.7,1.1,5.6c-1.2,1.9-3.7,2.4-5.5,1.2
				C103.9,283.1,103.4,280.7,104.6,278.8z"/>
			<path class="st1" d="M134.3,50.2c1.1-1.9,3.6-2.5,5.4-1.3c1.8,1.2,2.4,3.7,1.3,5.6c-1.1,1.9-3.6,2.5-5.4,1.3
				C133.7,54.6,133.2,52.1,134.3,50.2z"/>
			<path class="st1" d="M96.1,82.3c1.1-1.9,3.6-2.4,5.4-1.3c1.8,1.2,2.4,3.7,1.2,5.6c-1.1,1.9-3.6,2.4-5.4,1.3
				C95.5,86.7,95,84.1,96.1,82.3z"/>
			<path class="st1" d="M336.5,143.7c1.1-1.9,3.6-2.5,5.4-1.3s2.4,3.7,1.3,5.6c-1.1,1.9-3.6,2.5-5.4,1.3S335.4,145.6,336.5,143.7z"
				/>
			<path class="st1" d="M192.5,316.9c0.9-1.5,2.7-2.2,4.4-1.7c1.6,0.4,2.8,1.9,2.9,3.6c0.1,1.6-0.3,2.3-1.7,3
				c-0.4,0.2-0.8,0.4-1.2,0.6c-2,0.9-2.9,0.7-4.1-0.6C191.7,320.4,191.5,318.4,192.5,316.9z"/>
			<path class="st1" d="M70.9,123.1c1.1-1.8,3.7-2.4,5.4-1.2c1.7,1.2,2.3,3.7,1.2,5.5c-1.1,1.8-3.7,2.4-5.4,1.2
				C70.3,127.4,69.8,124.9,70.9,123.1z"/>
			<path class="st1" d="M339.2,207.4c-1.8-1.1-2.3-3.6-1.2-5.4c1.1-1.8,3.5-2.4,5.3-1.3c1.8,1.1,2.3,3.6,1.2,5.4
				C343.4,208,341,208.5,339.2,207.4z"/>
			<path class="st1" d="M333,127.1c-1.8-1.2-2.3-3.7-1.1-5.5c1.1-1.8,3.6-2.3,5.3-1.2c1.8,1.2,2.3,3.7,1.1,5.5
				C337.1,127.8,334.7,128.3,333,127.1z"/>
			<path class="st1" d="M73.4,239.3c1.1-1.8,3.5-2.4,5.3-1.2c1.8,1.1,2.3,3.6,1.2,5.4c-1.1,1.8-3.5,2.4-5.3,1.2
				C72.8,243.6,72.3,241.1,73.4,239.3z"/>
			<path class="st1" d="M226.3,29.1c1.8,1.1,2.3,3.4,1.2,5.3c-1.1,1.8-3.4,2.4-5.1,1.2c-1.8-1.1-2.3-3.4-1.2-5.3
				C222.3,28.5,224.5,28,226.3,29.1z"/>
			<path class="st1" d="M346.7,164.9c1.8,1.2,2.4,3.5,1.2,5.4c-1.1,1.8-3.4,2.4-5.2,1.2c-1.8-1.2-2.4-3.5-1.2-5.4
				C342.7,164.3,344.9,163.8,346.7,164.9z"/>
			<path class="st1" d="M163,312.3c1.8,1.2,2.3,3.6,1.1,5.4c-1.1,1.8-3.4,2.3-5.2,1.1c-1.8-1.2-2.3-3.6-1.1-5.4
				S161.2,311.1,163,312.3z"/>
			<path class="st1" d="M92.8,275.6c-1.8-1.2-2.2-3.5-1.1-5.3s3.4-2.3,5.2-1.1c1.8,1.2,2.2,3.5,1.1,5.3
				C96.8,276.3,94.6,276.8,92.8,275.6z"/>
			<path class="st1" d="M64.1,171.4c1.8,1.2,2.3,3.5,1.1,5.3c-1.1,1.8-3.4,2.3-5.2,1.2c-1.8-1.2-2.3-3.5-1.1-5.3
				C60.1,170.7,62.3,170.2,64.1,171.4z"/>
			<path class="st1" d="M105.8,74.1c-1.8-1.2-2.2-3.5-1.1-5.3c1.1-1.7,3.4-2.2,5.1-1.1c1.8,1.2,2.2,3.5,1.1,5.3
				C109.7,74.8,107.5,75.3,105.8,74.1z"/>
			<path class="st1" d="M62.7,137c1-1.7,3.4-2.3,5.1-1.2c1.6,1.1,2.2,3.4,1.1,5.1c-1,1.7-3.4,2.3-5.1,1.2
				C62.2,141,61.7,138.7,62.7,137z"/>
			<path class="st1" d="M301.8,268.6c1,0.8,1.6,2,1.7,3.6c0,0.8-0.4,1.2-1.1,1.3c-1.8,0.3-3.7,0.5-5.5,0.9c-0.8,0.2-1.2-0.1-1.5-0.9
				c-0.6-1.7-0.1-3.6,1.3-4.8C298.1,267.5,300,267.4,301.8,268.6z"/>
			<path class="st1" d="M169.7,30.5c1.7,1.1,2.2,3.4,1.1,5.1c-1.1,1.7-3.3,2.2-5,1.1c-1.6-1.1-2.1-3.3-1.1-5
				C165.8,30,168.1,29.4,169.7,30.5z"/>
			<path class="st1" d="M283.9,56.5c-1.7-1.1-2.2-3.4-1.2-5.1c1-1.7,3.3-2.2,5-1.1c1.6,1.1,2.1,3.3,1.1,5
				C287.9,57,285.6,57.5,283.9,56.5z"/>
			<path class="st1" d="M269.5,42.6c1.1-1.7,3.4-2.2,5-1.1c1.7,1.1,2.1,3.5,1,5.1s-3.3,2.1-4.9,1.1
				C268.9,46.7,268.4,44.3,269.5,42.6z"/>
			<path class="st1" d="M296,59.9c1.1-1.7,3.2-2.2,4.9-1.1c1.7,1.1,2.1,3.4,1,5.1s-3.2,2.1-4.9,1C295.3,63.7,294.9,61.6,296,59.9z"
				/>
			<path class="st1" d="M187.5,31.9c-1.7-1.1-2.1-3.3-1.1-5c1.1-1.8,3.2-2.2,4.9-1.1c1.6,1.1,2.1,3.3,1,5
				C191.3,32.5,189.2,33,187.5,31.9z"/>
			<path class="st1" d="M332,98.4c1.7,1.1,2.2,3.2,1.2,5c-1.1,1.8-3.2,2.3-4.9,1.2c-1.7-1.1-2.1-3.3-1.1-5
				C328.3,97.8,330.4,97.3,332,98.4z"/>
			<path class="st1" d="M171.4,322.3c1.1-1.7,3.2-2.2,4.8-1.1s2.1,3.3,1,5c-1.1,1.6-3.1,2.1-4.7,1
				C170.8,326.2,170.3,324,171.4,322.3z"/>
			<path class="st1" d="M347.7,193.5c-1.6-1.1-2-3.3-1-4.9c1.1-1.7,3.2-2.1,4.8-1c1.6,1.1,2,3.3,0.9,4.9
				C351.4,194.2,349.3,194.6,347.7,193.5z"/>
			<path class="st1" d="M327.3,256.4c-1.6-1-2-3.3-1-4.9c1-1.6,3.2-2.1,4.8-1c1.5,1.1,2,3.2,1,4.8
				C331.1,256.9,328.9,257.4,327.3,256.4z"/>
			<path class="st1" d="M256.3,34.1c1-1.6,3.2-2.1,4.8-1.1c1.6,1.1,2,3.3,1,4.9c-1,1.6-3.1,2-4.7,1
				C255.8,37.9,255.3,35.7,256.3,34.1z"/>
			<path class="st1" d="M118.1,54.3c1.6,1.1,2,3.3,1,4.9c-1.1,1.6-3.3,2-4.8,0.9s-1.9-3.2-0.9-4.8C114.3,53.7,116.5,53.2,118.1,54.3
				z"/>
			<path class="st1" d="M84.3,265.7c-1.1,1.6-3.3,2-4.8,0.9s-1.9-3.4-0.9-4.9c1.1-1.5,3.2-1.9,4.7-0.9
				C85,261.9,85.4,264.1,84.3,265.7z"/>
			<path class="st1" d="M317.9,265.2c1-1.6,3.2-2,4.7-0.9s1.9,3.3,0.9,4.8c-1,1.6-3.2,2-4.7,0.9S316.9,266.7,317.9,265.2z"/>
			<path class="st1" d="M147.9,35.7c1.5,1,2,3.2,1,4.8s-3.2,2-4.7,1s-2-3.2-1-4.8C144.2,35.2,146.4,34.7,147.9,35.7z"/>
			<path class="st1" d="M334.8,238c1-1.6,3-2.1,4.6-1.1c1.5,1,2,3,1,4.6s-3,2.1-4.6,1.1C334.3,241.6,333.8,239.6,334.8,238z"/>
			<path class="st1" d="M59.1,149.7c1.5,1,2,3,1.1,4.6c-1,1.6-3,2.2-4.6,1.2s-2-3.1-1-4.7C55.5,149.2,57.5,148.7,59.1,149.7z"/>
			<path class="st1" d="M55.7,208.9c1-1.6,3-2.1,4.5-1.1c1.6,1,2.1,3.1,1.1,4.7c-1,1.6-3.1,2.1-4.6,1
				C55.2,212.5,54.8,210.4,55.7,208.9z"/>
			<path class="st1" d="M309.4,68.7c1-1.6,3.1-2.1,4.6-1c1.5,1,1.9,3.1,1,4.7c-1,1.6-3.1,2.1-4.6,1
				C308.9,72.3,308.5,70.3,309.4,68.7z"/>
			<path class="st1" d="M212.7,20.9c1.6,1,2,3,1,4.6s-2.9,2.1-4.5,1c-1.5-1-2-3-1-4.5C209.2,20.4,211.1,19.9,212.7,20.9z"/>
			<path class="st1" d="M60.8,231c1-1.6,3-2,4.5-1c1.6,1,2,3,0.9,4.6c-1,1.5-2.9,2-4.4,1C60.2,234.6,59.8,232.6,60.8,231z"/>
			<path class="st1" d="M346.4,135.1c-1.5-1-1.9-3-0.9-4.5c1-1.6,3-2,4.5-0.9c1.5,1,1.8,3,0.9,4.6
				C349.9,135.7,347.9,136.1,346.4,135.1z"/>
			<path class="st1" d="M51,186.6c0.9-1.5,3-2,4.4-1c1.5,1,1.9,3.1,0.9,4.6c-0.9,1.5-2.9,1.9-4.3,1C50.5,190.2,50,188.1,51,186.6z"
				/>
			<path class="st1" d="M354.9,151.7c1.5,1,1.9,3,1,4.5s-3,2-4.4,1s-1.9-3-1-4.5C351.4,151.3,353.4,150.8,354.9,151.7z"/>
			<path class="st1" d="M243.4,25.7c0.9-1.5,2.9-2,4.4-1s1.9,3.1,1,4.6s-2.9,1.9-4.3,1C242.9,29.3,242.5,27.2,243.4,25.7z"/>
			<path class="st1" d="M344.3,229c-1.4-0.9-1.9-3-1-4.5s2.9-1.9,4.3-1s1.9,3,1,4.5C347.7,229.4,345.7,229.9,344.3,229z"/>
			<path class="st1" d="M124.5,314.5c-1.4-1-1.8-3-0.9-4.5s2.9-1.9,4.4-0.9c1.4,1,1.8,3,0.9,4.5C127.9,315,125.9,315.5,124.5,314.5z
				"/>
			<path class="st1" d="M111.2,305.8c-1.4-1-1.8-3-0.9-4.5c0.9-1.4,3-1.9,4.4-0.9s1.8,3,0.9,4.5
				C114.6,306.4,112.6,306.8,111.2,305.8z"/>
			<path class="st1" d="M323,77.6c0.9-1.4,2.7-1.9,4.1-1s1.8,2.8,1,4.2c-0.9,1.4-2.7,1.9-4.1,1C322.6,80.9,322.1,79.1,323,77.6z"/>
			<path class="st1" d="M122,42.1c0.9-1.4,2.7-1.8,4.1-0.9c1.4,0.9,1.8,2.8,0.9,4.2s-2.7,1.8-4.1,0.9S121.1,43.6,122,42.1z"/>
			<path class="st1" d="M136.8,318.7c0.9-1.5,2.7-1.9,4.2-0.9c1.4,1,1.8,2.8,0.8,4.3c-0.9,1.4-2.7,1.8-4.1,0.9
				C136.3,322,135.9,320.2,136.8,318.7z"/>
			<path class="st1" d="M345.1,107.5c1.5,0.9,1.9,2.8,0.9,4.3c-0.9,1.5-2.7,1.9-4.2,0.9c-1.4-0.9-1.8-2.7-0.9-4.2
				C341.9,107,343.7,106.6,345.1,107.5z"/>
			<path class="st1" d="M75.1,87.8c0.9-1.5,2.7-1.9,4.1-1s1.8,2.8,1,4.2c-0.9,1.5-2.7,1.9-4.1,1S74.3,89.2,75.1,87.8z"/>
			<path class="st1" d="M97.1,292.8c0.9-1.4,2.7-1.8,4.1-0.9s1.8,2.8,0.9,4.2c-0.9,1.4-2.7,1.8-4.1,0.9S96.2,294.2,97.1,292.8z"/>
			<path class="st1" d="M65.7,253.4c0.9-1.4,2.8-1.8,4.1-0.9c1.3,0.9,1.7,2.8,0.9,4.1c-0.9,1.4-2.8,1.8-4.1,0.9
				C65.3,256.7,64.9,254.8,65.7,253.4z"/>
			<path class="st1" d="M66.7,101.5c0.8-1.4,2.7-1.9,4.1-1c1.3,0.9,1.7,2.7,0.9,4.1c-0.8,1.4-2.7,1.9-4.1,1
				C66.3,104.8,65.9,102.9,66.7,101.5z"/>
			<path class="st1" d="M355.6,175.3c0.8-1.4,2.7-1.8,4-0.9c1.3,0.9,1.7,2.8,0.8,4.1c-0.8,1.3-2.6,1.7-3.9,0.9
				S354.8,176.7,355.6,175.3z"/>
			<path class="st1" d="M174.7,22.6c-1.3-0.9-1.7-2.6-0.9-4s2.5-1.8,3.9-0.9c1.3,0.9,1.7,2.6,0.9,4C177.7,23.1,176,23.5,174.7,22.6z
				"/>
			<path class="st1" d="M87.6,73.3c1.3,0.8,1.8,2.6,0.9,4c-0.8,1.4-2.5,1.8-3.9,1c-1.3-0.8-1.8-2.6-0.9-4
				C84.6,72.8,86.2,72.4,87.6,73.3z"/>
			<path class="st1" d="M355.9,210.2c1.3,0.9,1.7,2.6,0.8,4c-0.9,1.4-2.6,1.7-3.9,0.8s-1.7-2.6-0.8-4
				C352.9,209.6,354.6,209.3,355.9,210.2z"/>
			<path class="st1" d="M154.1,326.6c1.3,0.9,1.7,2.6,0.9,4s-2.5,1.8-3.9,0.9c-1.3-0.9-1.7-2.6-0.9-4
				C151.1,326.1,152.8,325.7,154.1,326.6z"/>
			<path class="st1" d="M62.4,114.1c1.3,0.9,1.7,2.6,0.8,4c-0.9,1.4-2.5,1.7-3.9,0.9c-1.3-0.9-1.7-2.6-0.8-4S61.1,113.3,62.4,114.1z
				"/>
			<path class="st1" d="M46.7,164.5c0.9-1.4,2.5-1.7,3.9-0.9c1.3,0.9,1.7,2.6,0.8,4s-2.5,1.7-3.9,0.9
				C46.2,167.6,45.8,165.9,46.7,164.5z"/>
			<path class="st1" d="M230.4,17.2c0.8-1.3,2.4-1.7,3.8-0.9c1.4,0.9,1.7,2.6,0.9,4c-0.8,1.3-2.5,1.7-3.8,0.8
				C230,20.2,229.6,18.6,230.4,17.2z"/>
			<path class="st1" d="M155.9,22.6c1.3,0.8,1.7,2.6,0.9,3.9s-2.5,1.7-3.8,0.8c-1.2-0.8-1.6-2.5-0.8-3.8
				C153,22.2,154.7,21.8,155.9,22.6z"/>
			<path class="st1" d="M85.1,288.2c-1.3-0.8-1.7-2.6-0.8-3.9c0.8-1.3,2.5-1.7,3.8-0.8c1.2,0.8,1.6,2.5,0.8,3.8
				C88,288.7,86.3,289.1,85.1,288.2z"/>
			<path class="st1" d="M196.5,17.4c-1.2-0.8-1.6-2.4-0.8-3.6c0.8-1.3,2.4-1.6,3.6-0.8c1.2,0.8,1.5,2.5,0.7,3.7
				C199.3,17.8,197.7,18.2,196.5,17.4z"/>
			<path class="st1" d="M95.8,60c1.2,0.8,1.5,2.4,0.8,3.7c-0.8,1.3-2.5,1.6-3.7,0.8c-1.2-0.8-1.5-2.5-0.7-3.7
				C93.1,59.6,94.7,59.2,95.8,60z"/>
			<path class="st1" d="M53.8,128c1.3,0.8,1.6,2.3,0.8,3.6c-0.8,1.2-2.2,1.6-3.4,0.8c-1.3-0.8-1.6-2.3-0.8-3.6
				C51.1,127.6,52.6,127.3,53.8,128z"/>
			<path class="st1" d="M336.5,86.4c0.8-1.3,2.3-1.6,3.5-0.8c1.2,0.8,1.5,2.3,0.7,3.5c-0.8,1.3-2.3,1.6-3.5,0.8
				C336.1,89.1,335.8,87.6,336.5,86.4z"/>
			<path class="st1" d="M43.2,200.6c0.8-1.2,2.3-1.5,3.4-0.7c1.1,0.8,1.4,2.4,0.7,3.5s-2.2,1.4-3.4,0.7
				C42.7,203.4,42.4,201.8,43.2,200.6z"/>
			<path class="st1" d="M48.9,226.3c-1.2-0.8-1.5-2.3-0.8-3.5s2.3-1.5,3.4-0.7c1.1,0.8,1.4,2.3,0.7,3.4
				C51.6,226.7,50.1,227,48.9,226.3z"/>
			<path class="st1" d="M292.8,41.9c-1.1-0.8-1.4-2.4-0.7-3.5c0.8-1.2,2.3-1.5,3.5-0.6c1.1,0.8,1.4,2.3,0.6,3.5
				C295.4,42.4,293.9,42.7,292.8,41.9z"/>
			<path class="st1" d="M279.5,33.2c-1.1-0.7-1.4-2.4-0.7-3.5c0.7-1.1,2.3-1.4,3.4-0.6c1,0.8,1.3,2.3,0.6,3.4
				C282.1,33.6,280.6,34,279.5,33.2z"/>
			<path class="st1" d="M250.3,291.4c-2.6,1.5-5.1,2.9-7.6,4.4c-0.1-2.1,0.7-3.5,2.2-4.5C246.5,290.2,248.3,290.3,250.3,291.4z"/>
			<path class="st1" d="M360.3,143.1c-1.1-0.7-1.4-2.2-0.8-3.3c0.7-1.1,2.1-1.5,3.2-0.8s1.4,2.2,0.8,3.3
				C362.8,143.4,361.4,143.8,360.3,143.1z"/>
			<path class="st1" d="M360.7,197.8c0.7-1.1,2.2-1.4,3.2-0.7c1.1,0.7,1.4,2.2,0.7,3.3c-0.7,1.1-2.2,1.4-3.2,0.7
				C360.3,200.4,360,198.9,360.7,197.8z"/>
			<path class="st1" d="M305.2,47.1c0.7-1.1,2.1-1.5,3.2-0.8s1.4,2.2,0.8,3.3c-0.7,1.1-2.1,1.5-3.2,0.8
				C304.9,49.7,304.6,48.3,305.2,47.1z"/>
			<path class="st1" d="M131,28.8c0.7-1.1,2.1-1.5,3.2-0.8c1.1,0.7,1.4,2.2,0.8,3.3c-0.7,1.1-2.1,1.5-3.2,0.8
				C130.6,31.4,130.3,30,131,28.8z"/>
			<path class="st1" d="M72,279.2c-1.1-0.7-1.4-2.1-0.8-3.2c0.7-1.1,2-1.5,3.1-0.8s1.4,2.1,0.8,3.2C74.4,279.5,73.1,279.9,72,279.2z
				"/>
			<path class="st1" d="M266.3,24.4c-1-0.7-1.3-2.1-0.6-3.1c0.7-1.1,2.1-1.4,3.1-0.6c1,0.7,1.2,2.1,0.5,3.1
				C268.6,24.8,267.3,25,266.3,24.4z"/>
			<path class="st1" d="M354.7,117.5c0.6-1,2-1.4,3-0.7c1.1,0.7,1.4,2.1,0.7,3.2c-0.7,1-2,1.3-3,0.6
				C354.4,119.9,354.1,118.5,354.7,117.5z"/>
			<path class="st1" d="M101.7,50.5c-1-0.6-1.4-2-0.8-3.1s2.1-1.5,3.1-0.8s1.3,2.1,0.7,3.1C104.1,50.8,102.8,51.1,101.7,50.5z"/>
			<path class="st1" d="M41.7,177.8c1,0.6,1.4,2,0.8,3.1c-0.6,1.1-2.1,1.4-3.1,0.8c-1-0.7-1.3-2.1-0.7-3.1
				C39.3,177.5,40.7,177.2,41.7,177.8z"/>
			<path class="st1" d="M53.2,245.3c0.6-1,2-1.4,3-0.7c1.1,0.7,1.4,2.1,0.7,3.2c-0.7,1-2,1.3-3,0.7
				C52.9,247.8,52.6,246.4,53.2,245.3z"/>
			<path class="st1" d="M45.2,142.1c1,0.6,1.3,2.1,0.6,3.1c-0.6,1-2,1.2-2.9,0.6c-1-0.6-1.3-2.1-0.6-3.1
				C42.9,141.7,44.2,141.4,45.2,142.1z"/>
			<path class="st1" d="M367.6,161.3c1,0.6,1.3,2.1,0.6,3.1c-0.6,1-2,1.3-2.9,0.6c-1-0.6-1.3-2.1-0.6-3.1
				C365.3,161,366.7,160.7,367.6,161.3z"/>
			<path class="st1" d="M340.7,260.9c0.6-1,2.1-1.3,3-0.7c0.9,0.6,1.2,2,0.6,3s-2.1,1.3-3,0.7C340.4,263.3,340.1,261.9,340.7,260.9z
				"/>
			<path class="st1" d="M221.2,11.3c-0.7,1-2.1,1.2-3,0.5s-1.1-2.1-0.5-3c0.7-1,2.1-1.2,3-0.5C221.6,9,221.9,10.4,221.2,11.3z"/>
			<path class="st1" d="M318.8,55.9c0.6-1,1.8-1.3,2.8-0.6s1.3,2,0.6,3c-0.6,1-1.9,1.2-2.8,0.5C318.4,58.1,318.2,56.9,318.8,55.9z"
				/>
			<path class="st1" d="M352,246.7c0.9,0.6,1.2,1.9,0.5,2.9c-0.6,0.9-1.8,1.1-2.7,0.5c-0.9-0.6-1.2-1.9-0.5-2.9
				C349.9,246.3,351.1,246.1,352,246.7z"/>
			<path class="st1" d="M252.8,12.8c0.6-0.9,1.9-1.1,2.7-0.5c0.8,0.6,1,1.9,0.5,2.7c-0.6,0.9-1.9,1.1-2.7,0.5S252.2,13.7,252.8,12.8
				z"/>
			<path class="st1" d="M118.8,323.9c0.9,0.6,1.1,1.7,0.5,2.5c-0.6,0.9-1.7,1.2-2.6,0.5c-0.8-0.6-1-1.7-0.5-2.6
				C116.9,323.6,117.9,323.4,118.8,323.9z"/>
			<path class="st1" d="M350.4,95.4c0.6-0.9,1.6-1.1,2.5-0.6c0.9,0.6,1.1,1.7,0.5,2.6s-1.6,1.1-2.5,0.5
				C350.1,97.4,349.9,96.3,350.4,95.4z"/>
			<path class="st1" d="M161.4,10.5c0.5-0.8,1.5-1.1,2.4-0.6s1.1,1.7,0.6,2.5s-1.6,1-2.4,0.5C161.1,12.5,160.9,11.4,161.4,10.5z"/>
			<path class="st1" d="M357.8,234c0.5-0.8,1.6-1,2.4-0.5c0.8,0.6,1.1,1.7,0.5,2.5c-0.5,0.8-1.6,1-2.4,0.4
				C357.5,235.9,357.3,234.8,357.8,234z"/>
			<path class="st1" d="M105.4,315.3c0.8,0.5,1.1,1.6,0.6,2.4c-0.5,0.9-1.6,1.2-2.4,0.6c-0.8-0.5-1-1.6-0.5-2.4
				C103.5,315,104.5,314.8,105.4,315.3z"/>
			<path class="st1" d="M185.5,5c0.7,0.5,1,1.6,0.5,2.3c-0.5,0.8-1.6,1-2.4,0.5c-0.7-0.5-0.9-1.6-0.4-2.4
				C183.7,4.8,184.8,4.6,185.5,5z"/>
			<path class="st1" d="M109.8,34.2c0.5-0.8,1.5-1,2.3-0.5s1,1.7,0.5,2.4s-1.6,0.9-2.3,0.4C109.5,36,109.3,34.9,109.8,34.2z"/>
			<path class="st1" d="M369.7,184.5c0.5-0.8,1.5-1,2.3-0.6c0.8,0.5,1,1.7,0.5,2.4s-1.6,1-2.3,0.5
				C369.5,186.4,369.3,185.3,369.7,184.5z"/>
			<path class="st1" d="M58.5,267.6c0.5-0.8,1.5-1,2.3-0.6c0.8,0.5,1,1.6,0.5,2.4c-0.5,0.7-1.6,1-2.3,0.5
				C58.2,269.5,58,268.4,58.5,267.6z"/>
			<path class="st1" d="M334.7,64.3c0.7,0.5,1,1.5,0.6,2.3s-1.6,1.1-2.4,0.6c-0.7-0.5-1-1.6-0.5-2.3C332.9,64.1,334,63.8,334.7,64.3
				z"/>
			<path class="st1" d="M63.3,80.1c0.6-0.9,1.4-1.2,2.2-0.7c0.7,0.5,1,1.6,0.5,2.3c-0.5,0.8-1.5,1-2.3,0.6
				C62.9,81.8,62.8,81,63.3,80.1z"/>
			<path class="st1" d="M219,310.2c-2,1.2-3.8,2.2-5.6,3.2C213.7,310.9,216.1,309.4,219,310.2z"/>
			<path class="st1" d="M90.4,309.5c-0.8-0.5-1-1.4-0.5-2.2c0.5-0.8,1.4-1,2.1-0.5c0.8,0.5,0.9,1.3,0.5,2.1
				C92,309.7,91.1,309.9,90.4,309.5z"/>
			<path class="st1" d="M140.6,17.7c-0.7-0.6-0.9-1.3-0.4-2.1c0.5-0.8,1.3-0.9,2-0.4s0.9,1.2,0.4,2C142.2,18,141.4,18.1,140.6,17.7z
				"/>
			<path class="st1" d="M55,95.7c0.3-0.7,0.6-1.5,0.9-2.2c0.3-0.8,0.8-0.7,1.3-0.2c0.7,0.7,0.7,1.5,0.2,2.3
				C56.9,96.4,56,96.4,55,95.7z"/>
			<path class="st1" d="M72.1,66.7c0.4-0.5,0.8-1.4,1.7-0.8c0.7,0.5,0.9,1.3,0.4,2c-0.5,0.8-1.2,0.9-2,0.5
				C71.4,67.9,71.6,67.3,72.1,66.7z"/>
			<path class="st1" d="M207.4,0.3c0,0.6,0.3,1.3,0.1,1.9c-0.3,0.8-1.1,0.9-1.8,0.4s-0.9-1.2-0.3-1.8c0.4-0.4,1.1-0.5,1.6-0.8
				C207.1,0.1,207.2,0.2,207.4,0.3z"/>
			<path class="st1" d="M366.5,220.2c0.6-0.1,1.3-0.3,1.8-0.1c0.8,0.3,0.9,1.1,0.5,1.9c-0.4,0.7-1.2,0.9-1.8,0.4
				c-0.4-0.4-0.5-1.1-0.8-1.7C366.3,220.6,366.4,220.4,366.5,220.2z"/>
			<path class="st1" d="M240,4.2c0.6,0,1.3-0.3,1.8,0c0.8,0.4,0.9,1.2,0.4,1.9S241,7,240.4,6.4c-0.4-0.4-0.5-1.1-0.7-1.7
				C239.8,4.5,239.9,4.3,240,4.2z"/>
			<path class="st1" d="M129.1,333.6c0.5-1.2,1.2-1.6,2.1-1.4c1,0.2,1.5,0.9,1.4,2.1C131.5,334.1,130.4,333.9,129.1,333.6z"/>
			<path class="st1" d="M370.9,126.3c0,0.6,0.3,1.4,0,1.7c-0.3,0.4-1.2,0.5-1.6,0.4c-0.3-0.1-0.6-1.2-0.4-1.5c0.2-0.4,1-0.6,1.5-0.8
				C370.6,126.1,370.7,126.2,370.9,126.3z"/>
			<path class="st1" d="M79,298.5c0,0.6,0.2,1.3,0,1.7c-0.2,0.4-1.3,0.6-1.5,0.4c-0.4-0.3-0.6-1.2-0.5-1.6c0.2-0.4,1-0.5,1.5-0.8
				C78.7,298.3,78.9,298.4,79,298.5z"/>
			<path class="st1" d="M373.5,148.8c0.9,0,1.6-0.2,1.9,0c0.3,0.3,0.5,1.1,0.3,1.4c-0.2,0.3-1,0.5-1.4,0.3
				C373.9,150.4,373.8,149.7,373.5,148.8z"/>
			<path class="st1" d="M347.9,73c0,0.9,0.2,1.6-0.1,1.9c-0.3,0.3-1.1,0.5-1.4,0.3s-0.4-1.1-0.2-1.4C346.3,73.4,347,73.3,347.9,73z"
				/>
			<path class="st1" d="M363.9,104.3c0.8-0.1,1.4-0.3,1.6-0.1c0.3,0.3,0.3,0.9,0.4,1.4c-0.4,0.1-1,0.4-1.3,0.2
				C364.3,105.6,364.2,105,363.9,104.3z"/>
			<path class="st1" d="M376.7,206.6c0.1,0.8,0.3,1.4,0.1,1.6c-0.3,0.3-0.9,0.3-1.3,0.4c-0.1-0.4-0.4-1-0.2-1.3
				C375.4,207,376,206.9,376.7,206.6z"/>
			<path class="st1" d="M378.7,171.1c0.6,0,1.1-0.1,1.3,0.1c0.2,0.2,0.2,0.8,0.1,1s-0.7,0.3-0.9,0.1
				C379,172.2,378.9,171.7,378.7,171.1z"/>
		</g>
		
			<linearGradient id="SVGID_1_" gradientUnits="userSpaceOnUse" x1="1522.1428" y1="-277.0476" x2="1208.233" y2="-123.9843" gradientTransform="matrix(-0.6942 -0.7198 -0.7514 0.7247 980.9705 1363.603)">
			<stop  offset="0.5134" style="stop-color:#9C5FD4;stop-opacity:0.8"/>
			<stop  offset="1" style="stop-color:#458BED;stop-opacity:0.9"/>
		</linearGradient>
		<path class="st2" d="M2.4,187.9C-3,218.7,0.8,251,12.8,278.6c23.7,54.3,74.7,91.5,130.1,109.5C191.1,403.8,246,406,293,383
			c79.6-38.9,108.2-149.7,39-209c-29.1-24.9-67.6-28.9-104.5-33.3c-39.9-4.8-55.3-32.9-88.7-50.7c-44.4-23.8-87.3,2.1-114.3,42
			C13.2,148.7,5.9,168,2.4,187.9z"/>
		
			<linearGradient id="SVGID_2_" gradientUnits="userSpaceOnUse" x1="1015.4257" y1="-680.866" x2="942.4639" y2="-660.0797" gradientTransform="matrix(-0.8738 -0.4863 -0.4863 0.8738 721.2568 1114.0892)">
			<stop  offset="0.3936" style="stop-color:#9C5FD4"/>
			<stop  offset="1" style="stop-color:#458BED;stop-opacity:0.8"/>
		</linearGradient>
		<path class="st3" d="M161.2,31.5c10.1-18.6,32.9-25.3,51-14.9c18.1,10.3,24.6,33.8,14.5,52.4s-40,28.8-54.1,20.7
			C158.5,81.6,151.2,50.1,161.2,31.5z"/>
		
			<linearGradient id="SVGID_3_" gradientUnits="userSpaceOnUse" x1="-46.4495" y1="148.9924" x2="-9.8457" y2="127.4198" gradientTransform="matrix(0.9682 0.2502 0.2502 -0.9682 101.6359 225.8162)">
			<stop  offset="0" style="stop-color:#458BED;stop-opacity:0.7"/>
			<stop  offset="1" style="stop-color:#9C5FD4"/>
		</linearGradient>
		<ellipse class="st4" cx="109" cy="85" rx="20.9" ry="21.5"/>
		
			<linearGradient id="SVGID_4_" gradientUnits="userSpaceOnUse" x1="162.2357" y1="217.9552" x2="180.6829" y2="207.0831" gradientTransform="matrix(0.9682 0.2502 0.2502 -0.9682 101.6359 225.8162)">
			<stop  offset="0" style="stop-color:#9C5FD4"/>
			<stop  offset="1" style="stop-color:#458BED"/>
		</linearGradient>
		<path class="st5" d="M331.1,65.7c-1.5,5.8-7.2,9.3-12.9,7.8c-5.7-1.5-9-7.4-7.6-13.2c1.5-5.8,7.2-9.3,12.9-7.8
			C329.1,53.9,332.5,59.8,331.1,65.7z"/>
		
			<linearGradient id="SVGID_5_" gradientUnits="userSpaceOnUse" x1="-41.7163" y1="193.1816" x2="-24.2436" y2="182.8839" gradientTransform="matrix(0.9682 0.2502 0.2502 -0.9682 101.6359 225.8162)">
			<stop  offset="0" style="stop-color:#458BED;stop-opacity:0.5"/>
			<stop  offset="1" style="stop-color:#9C5FD4"/>
		</linearGradient>
		<path class="st6" d="M126.5,38.1c-1.4,5.5-6.8,8.8-12.2,7.4c-5.3-1.4-8.6-7-7.2-12.5s6.8-8.8,12.2-7.4
			C124.6,27,127.8,32.6,126.5,38.1z"/>
		<linearGradient id="SVGID_6_" gradientUnits="userSpaceOnUse" x1="43.7934" y1="230.9553" x2="399.9852" y2="230.9553">
			<stop  offset="0.4364" style="stop-color:#9C2BD4;stop-opacity:0.5"/>
			<stop  offset="1" style="stop-color:#458BED;stop-opacity:0.9"/>
		</linearGradient>
		<path class="st7" d="M55.6,277.4c11.8,26,31.6,48.5,55.3,63.1c46.6,28.7,105.5,30.6,157.9,15.6c45.6-13,89.3-39.6,113.8-81.2
			c41.5-70.4,6.1-168.7-78.5-177.8c-35.6-3.8-67.5,13-98.4,28.7c-33.5,16.9-60,3.7-95.1,7.4c-46.8,4.9-66.6,46.5-66.8,90.6
			C43.6,242.3,48,260.6,55.6,277.4z"/>
	</g>
	<rect x="93.8" y="191.7" class="st8" width="238.9" height="79.1"/>
	<text transform="matrix(0.9729 0 0 1 123.3999 245.3242)" class="st9 st10 st11">Vision</text>
</g>
</svg>
