<?xml version="1.0" encoding="iso-8859-1"?>
<!-- Generator: Adobe Illustrator 19.0.0, SVG Export Plug-In . SVG Version: 6.00 Build 0)  -->
<svg version="1.1" id="Layer_1" xmlns="http://www.w3.org/2000/svg" xmlns:xlink="http://www.w3.org/1999/xlink" x="0px" y="0px"
	 viewBox="0 0 512.002 512.002" style="enable-background:new 0 0 512.002 512.002;" xml:space="preserve">
<path style="fill:#9c5fd49f;" d="M0.001,256.006c0,141.395,114.606,255.998,255.996,255.994
	c141.398,0.004,256.004-114.598,256.004-255.994C512.01,114.61,397.395,0,255.997,0C114.607,0,0.001,114.614,0.001,256.006z"/>
<path style="fill:#9c5fd4;" d="M512.001,256.005c0-4.972-0.177-9.901-0.455-14.804c-0.226-0.241-0.45-0.484-0.695-0.714
	c-0.031-0.03-0.076-0.036-0.108-0.066c-0.513-0.497-145.871-145.948-146.395-146.436c-2.969-2.774-7.639-2.618-10.429,0.367
	c-2.783,2.985-2.615,7.646,0.367,10.429c17.52,16.33,27.17,38.001,27.17,61.02c0,1.386-0.146,2.748-0.217,4.123
	c-0.203-0.207-45.806-45.807-46.131-46.146c-2.825-2.925-7.517-3.019-10.435-0.188c-2.933,2.833-3.012,7.51-0.188,10.436
	c9.246,9.573,13.254,22.413,12.396,34.962c-0.235-0.229-28.861-28.795-29.424-29.294c-0.5-0.566-40.841-40.907-41.408-41.408
	c-3.381-3.823-8.257-6.283-13.74-6.283c-10.176,0-18.449,8.31-18.449,18.529v52.476c-0.329-0.411-23.621-23.647-23.772-23.748
	c-0.353-0.465-0.645-0.966-1.12-1.349c-2.387-1.917-5.598-2.101-8.133-0.736c-0.258-0.254-0.571-0.403-0.854-0.613
	c-0.187-0.26-41.674-41.967-41.899-42.208c-2.789-2.991-7.452-3.149-10.429-0.367c-20.546,19.155-31.868,44.659-31.868,71.815
	c0,27.155,11.322,52.659,31.868,71.815c0.033,0.031,0.078,0.039,0.111,0.07c0.512,0.495,46.146,46.148,46.187,46.188l-63.407,0.002
	c-28.481,0-51.658,23.178-51.658,51.658v29.518c0,6.511,2.877,12.314,7.364,16.368c0.506,0.56,22.478,22.531,22.58,22.641
	c0.47,1.55,1.408,2.819,2.686,3.75c0.452,0.62,79.134,84.419,98.731,98.732c0.451,0.619,0.969,1.135,1.587,1.586
	c14.353,2.497,29.092,3.872,44.16,3.872C397.395,512.004,512.001,397.401,512.001,256.005z"/>
<g>
	<path style="fill:#F6F6F6;" d="M381.456,283.874H270.761V110.53c0-10.219-8.273-18.528-18.449-18.528s-18.449,8.309-18.449,18.528
		v173.344H130.546c-28.481,0-51.658,23.177-51.658,51.658v29.519c0,12.208,9.931,22.139,22.139,22.139h7.379v14.759
		c0,4.079,3.3,7.379,7.379,7.379c4.079,0,7.379-3.3,7.379-7.379v-14.759h273.049v14.759c0,4.079,3.3,7.379,7.379,7.379
		c4.079,0,7.379-3.3,7.379-7.379v-14.759c12.208,0,22.139-9.931,22.139-22.139v-29.519
		C433.114,307.052,409.937,283.874,381.456,283.874z M248.622,110.531c0-2.076,1.658-3.77,3.69-3.77s3.69,1.694,3.69,3.77v173.344
		h-7.379V110.531z M418.354,365.052c0,4.071-3.308,7.379-7.379,7.379H101.027c-4.071,0-7.379-3.308-7.379-7.379v-29.519
		c0-20.345,16.554-36.898,36.898-36.898h250.91c20.345,0,36.898,16.554,36.898,36.898L418.354,365.052L418.354,365.052z"/>
	<path style="fill:#F6F6F6;" d="M295.652,193.69c1.362,1.095,2.998,1.629,4.62,1.629c2.162,0,4.303-0.944,5.758-2.753
		c12.071-15.011,12.071-38.521,0-53.532c-2.551-3.171-7.206-3.682-10.378-1.124s-3.676,7.2-1.124,10.378
		c7.639,9.491,7.639,25.534,0,35.025C291.978,186.49,292.481,191.131,295.652,193.69z"/>
	<path style="fill:#F6F6F6;" d="M324.674,208.01c1.427,1.383,3.279,2.068,5.124,2.068c1.932,0,3.862-0.756,5.311-2.256
		c22.377-23.17,22.377-60.876,0-84.045c-2.825-2.926-7.517-3.02-10.435-0.188c-2.933,2.832-3.012,7.509-0.188,10.435
		c16.922,17.52,16.922,46.03,0,63.549C321.662,200.5,321.741,205.177,324.674,208.01z"/>
	<path style="fill:#F6F6F6;" d="M353.919,237.247c1.456,1.564,3.423,2.35,5.397,2.35c1.802,0,3.611-0.656,5.03-1.982
		c20.546-19.155,31.868-44.66,31.868-71.815s-11.322-52.659-31.868-71.815c-2.97-2.774-7.639-2.617-10.428,0.368
		c-2.782,2.983-2.617,7.646,0.368,10.428c17.52,16.331,27.169,38.001,27.169,61.02s-9.65,44.689-27.169,61.02
		C351.304,229.601,351.137,234.263,353.919,237.247z"/>
	<path style="fill:#F6F6F6;" d="M204.35,195.318c1.621,0,3.258-0.533,4.62-1.629c3.171-2.558,3.676-7.2,1.124-10.378
		c-7.639-9.491-7.639-25.534,0-35.025c2.551-3.179,2.047-7.82-1.124-10.378c-3.179-2.551-7.82-2.039-10.378,1.124
		c-12.071,15.011-12.071,38.521,0,53.532C200.048,194.374,202.189,195.318,204.35,195.318z"/>
	<path style="fill:#F6F6F6;" d="M169.513,207.822c1.449,1.499,3.38,2.256,5.311,2.256c1.845,0,3.697-0.685,5.124-2.068
		c2.933-2.832,3.012-7.509,0.188-10.435c-16.922-17.52-16.922-46.03,0-63.549c2.825-2.926,2.746-7.603-0.188-10.435
		c-2.918-2.832-7.603-2.738-10.435,0.188C147.136,146.946,147.136,184.652,169.513,207.822z"/>
	<path style="fill:#F6F6F6;" d="M152.685,239.597c1.974,0,3.942-0.785,5.397-2.35c2.782-2.983,2.617-7.646-0.368-10.428
		c-17.52-16.331-27.169-38.001-27.169-61.02s9.65-44.689,27.169-61.02c2.983-2.782,3.149-7.444,0.368-10.428
		c-2.789-2.991-7.452-3.15-10.428-0.368c-20.546,19.155-31.868,44.66-31.868,71.815s11.322,52.659,31.868,71.815
		C149.075,238.941,150.883,239.597,152.685,239.597z"/>
	<circle style="fill:#F6F6F6;" cx="145.302" cy="335.531" r="14.759"/>
	<circle style="fill:#F6F6F6;" cx="189.58" cy="335.531" r="14.759"/>
</g>
<g>
</g>
<g>
</g>
<g>
</g>
<g>
</g>
<g>
</g>
<g>
</g>
<g>
</g>
<g>
</g>
<g>
</g>
<g>
</g>
<g>
</g>
<g>
</g>
<g>
</g>
<g>
</g>
<g>
</g>
</svg>
